<?xml version="1.0" standalone="no"?>
<!DOCTYPE svg PUBLIC "-//W3C//DTD SVG 20010904//EN"
 "http://www.w3.org/TR/2001/REC-SVG-20010904/DTD/svg10.dtd">
<svg version="1.0" xmlns="http://www.w3.org/2000/svg"
 width="698.000000pt" height="698.000000pt" viewBox="0 0 698.000000 698.000000"
 preserveAspectRatio="xMidYMid meet">
<metadata>
Created by potrace 1.14, written by Peter Selinger 2001-2017
</metadata>
<g transform="translate(0.000000,698.000000) scale(0.100000,-0.100000)"
fill="#000000" stroke="none">
<path d="M3339 6965 c-313 -38 -570 -155 -759 -347 -72 -72 -148 -184 -171
-251 -8 -22 -21 -43 -30 -47 -9 -5 -106 -43 -215 -84 -109 -41 -207 -77 -216
-81 -17 -7 -18 -29 -18 -276 l0 -268 -167 -145 -166 -145 -116 6 c-228 11
-383 -54 -559 -237 -168 -173 -207 -339 -177 -760 81 -1163 218 -1816 471
-2237 80 -132 129 -196 213 -276 179 -169 508 -334 843 -423 60 -16 108 -32
108 -36 0 -3 -62 -8 -137 -10 -160 -4 -206 -20 -283 -98 -82 -81 -93 -118 -99
-320 l-6 -175 -70 -6 c-117 -9 -215 -69 -271 -165 -36 -62 -41 -83 -63 -317
-12 -116 -23 -224 -26 -239 l-4 -28 139 0 c138 0 140 0 140 23 1 90 22 272 36
306 20 50 62 87 114 101 26 7 546 10 1627 8 l1588 -3 57 -23 c72 -29 118 -79
118 -127 l0 -35 -1469 0 c-1163 0 -1471 -3 -1478 -12 -9 -12 -63 -211 -63
-230 0 -5 749 -8 1665 -8 l1665 0 -5 28 c-3 15 -14 124 -26 241 -24 246 -38
295 -105 370 -60 66 -136 103 -228 110 l-71 6 -6 175 c-6 202 -17 239 -99 320
-77 78 -123 94 -282 98 -76 2 -138 7 -138 10 0 4 48 20 108 36 337 90 653 248
840 421 204 189 369 516 477 944 94 374 173 975 215 1640 15 242 -6 417 -67
538 -55 111 -212 264 -330 322 -110 55 -209 75 -344 68 l-116 -6 -166 145
-167 145 -2 270 -3 270 -224 84 c-123 46 -226 87 -230 92 -4 4 -16 28 -26 53
-68 163 -229 326 -425 433 -150 82 -305 128 -507 152 -147 17 -152 17 -294 0z
m366 -359 c281 -60 517 -241 580 -445 6 -21 5 -23 -22 -17 -87 18 -470 48
-674 53 -246 6 -433 -4 -729 -37 -90 -10 -167 -16 -170 -14 -2 3 12 38 33 78
103 201 326 347 596 391 103 17 284 13 386 -9z m188 -502 c35 -6 37 -8 37 -43
l0 -37 113 -12 c61 -7 124 -15 140 -19 26 -5 27 -3 27 31 0 22 5 36 13 36 60
-1 384 -93 460 -131 l37 -19 0 -204 c0 -111 -2 -205 -5 -208 -3 -2 -58 6 -123
18 -681 133 -1519 134 -2172 5 -80 -16 -148 -26 -153 -22 -4 4 -6 99 -5 212
l3 204 39 18 c162 76 532 153 849 177 123 9 670 4 740 -6z m242 -609 c192 -21
205 -25 205 -63 l0 -29 98 -12 c53 -7 114 -16 135 -21 35 -7 37 -6 37 16 0 22
3 24 28 18 91 -22 272 -113 272 -136 0 -10 22 -13 -196 22 -218 34 -443 62
-699 87 -224 21 -781 24 -990 5 -262 -24 -498 -53 -724 -87 -123 -19 -227 -32
-230 -29 -9 9 39 42 114 79 137 67 380 121 670 149 234 23 243 24 700 21 318
-2 459 -7 580 -20z m-385 -195 c227 -9 478 -29 610 -48 62 -9 121 -43 241
-140 64 -52 109 -99 109 -115 0 -2 -37 5 -82 15 -51 12 -141 21 -233 25 -132
5 -161 3 -233 -15 -128 -33 -195 -88 -224 -184 -10 -34 -7 -61 21 -201 37
-190 51 -303 51 -444 l0 -103 48 0 c91 -1 170 -58 192 -141 10 -35 -2 -105
-105 -620 -114 -571 -116 -582 -101 -620 28 -69 17 -117 -39 -169 -25 -24 -34
-25 -155 -28 -143 -4 -172 4 -212 58 -17 23 -30 30 -56 30 -28 0 -46 -11 -98
-60 -113 -106 -279 -202 -399 -231 -27 -6 -53 -14 -57 -18 -3 -3 22 -78 58
-166 35 -88 64 -161 64 -164 0 -9 -132 11 -220 34 -239 64 -410 159 -536 299
l-56 61 37 -75 c172 -349 473 -714 808 -979 61 -47 121 -96 136 -108 l26 -22
-116 -1 -117 0 -63 47 c-210 153 -461 395 -596 573 -234 310 -386 659 -468
1073 -64 328 -75 536 -75 1499 0 731 1 777 18 782 30 9 353 64 467 80 281 40
654 72 910 79 50 2 115 4 145 5 30 1 165 -3 300 -8z m1212 -140 c57 -11 104
-20 106 -20 7 0 0 -1554 -8 -1705 -29 -517 -116 -889 -295 -1252 -176 -360
-427 -655 -791 -932 l-107 -81 -108 0 c-60 0 -109 3 -109 8 1 4 41 35 91 70
308 217 617 521 780 766 166 251 307 626 387 1026 65 324 65 318 69 1215 l4
820 -71 45 c-65 42 -83 60 -60 60 5 0 56 -9 112 -20z m-3447 -56 c101 -26 196
-93 256 -180 l29 -43 0 -199 c0 -109 -3 -201 -6 -205 -4 -3 -57 65 -119 151
-61 87 -130 171 -153 189 -104 79 -248 36 -281 -84 -29 -105 4 -731 64 -1203
101 -789 211 -1103 475 -1353 103 -98 208 -163 348 -215 l104 -39 50 -79 c27
-44 77 -112 111 -153 l61 -74 -64 6 c-211 22 -502 144 -706 296 -110 82 -249
230 -305 327 -141 239 -267 663 -333 1119 -59 405 -96 1272 -61 1423 27 114
75 183 170 247 115 76 241 101 360 69z m4136 2 c130 -28 250 -109 302 -205 43
-79 57 -164 57 -361 0 -275 -34 -848 -66 -1095 -64 -502 -222 -1029 -375
-1252 -50 -72 -183 -207 -266 -269 -207 -156 -497 -278 -713 -301 l-64 -6 61
74 c34 41 84 109 111 153 l50 79 104 39 c140 52 245 117 348 215 264 250 375
565 475 1353 60 472 93 1098 64 1203 -37 134 -210 168 -310 60 -15 -15 -74
-94 -132 -175 -57 -81 -107 -144 -111 -141 -3 4 -6 96 -6 205 l0 199 30 44
c61 89 173 165 270 184 66 13 97 12 171 -3z m-916 -4072 c43 -22 85 -75 85
-105 0 -18 -37 -19 -1129 -19 -893 0 -1131 -3 -1138 -12 -4 -7 -32 -83 -63
-168 l-55 -155 -155 -3 c-85 -1 -159 -1 -165 2 -8 3 -7 46 2 152 20 235 34
271 118 310 l50 24 1205 -3 c1200 -2 1205 -2 1245 -23z"/>
<path d="M3420 6463 c-36 -2 -69 -8 -74 -14 -6 -5 -3 -9 10 -9 66 0 274 -74
364 -129 40 -25 58 -29 165 -35 66 -4 146 -10 177 -15 69 -9 66 -2 -25 65
-134 99 -371 152 -617 137z"/>
<path d="M4100 5882 c224 -80 240 -92 240 -184 l0 -63 128 -24 c70 -13 133
-26 141 -29 11 -4 13 13 9 93 l-4 97 -41 38 c-68 64 -244 106 -478 116 l-130
5 135 -49z"/>
<path d="M3155 4578 c-5 -18 -216 -1125 -222 -1170 l-6 -38 273 0 c302 0 323
4 358 64 11 17 31 96 46 176 15 80 30 155 33 168 5 21 8 22 139 22 74 0 134
-2 134 -5 0 -8 -161 -788 -166 -807 -4 -15 -17 -18 -65 -18 -32 0 -59 -2 -59
-4 0 -2 7 -20 15 -39 8 -20 15 -39 15 -42 0 -6 -175 -7 -182 0 -2 3 6 71 18
152 13 82 25 163 28 181 l5 32 -89 0 c-83 0 -88 -1 -93 -22 -3 -13 -24 -122
-48 -242 -40 -211 -41 -220 -24 -233 14 -10 70 -13 235 -13 l216 0 22 -45 22
-45 75 0 c41 0 75 2 75 5 0 3 -9 23 -20 45 -15 30 -18 45 -10 62 17 41 233
1146 227 1162 -6 14 -37 16 -246 16 -149 0 -242 4 -246 10 -3 6 0 10 8 10 7 0
24 11 36 24 18 19 32 70 72 272 27 137 49 257 49 267 0 10 -11 29 -25 42 l-24
25 -286 0 c-220 0 -287 -3 -290 -12z m399 -154 c9 -9 14 -25 11 -37 -3 -12
-16 -87 -30 -167 -15 -80 -28 -153 -31 -162 -5 -16 -20 -18 -135 -18 -127 0
-129 0 -129 23 0 12 16 101 35 197 19 96 35 176 35 178 0 1 51 2 114 2 91 0
118 -3 130 -16z m-84 -543 c0 -39 -61 -346 -72 -358 -7 -9 -46 -13 -140 -13
-119 0 -129 1 -124 18 3 9 19 94 37 187 17 94 33 173 36 178 2 4 62 7 134 7
120 0 129 -1 129 -19z"/>
</g>
</svg>
