<?xml version="1.0" encoding="UTF-8" standalone="no"?>
<!-- Created with Inkscape (http://www.inkscape.org/) -->

<svg
   width="73.03717mm"
   height="92.339577mm"
   viewBox="0 0 73.03717 92.339575"
   version="1.1"
   id="svg2510"
   sodipodi:docname="icon.svg"
   inkscape:version="1.1 (c68e22c387, 2021-05-23)"
   xmlns:inkscape="http://www.inkscape.org/namespaces/inkscape"
   xmlns:sodipodi="http://sodipodi.sourceforge.net/DTD/sodipodi-0.dtd"
   xmlns="http://www.w3.org/2000/svg"
   xmlns:svg="http://www.w3.org/2000/svg">
  <sodipodi:namedview
     id="namedview2512"
     pagecolor="#ffffff"
     bordercolor="#666666"
     borderopacity="1.0"
     inkscape:pageshadow="2"
     inkscape:pageopacity="0.0"
     inkscape:pagecheckerboard="0"
     inkscape:document-units="mm"
     showgrid="false"
     inkscape:zoom="1.4823793"
     inkscape:cx="90.057919"
     inkscape:cy="160.88999"
     inkscape:window-width="1920"
     inkscape:window-height="1017"
     inkscape:window-x="1912"
     inkscape:window-y="1072"
     inkscape:window-maximized="1"
     inkscape:current-layer="layer1"
     fit-margin-top="0"
     fit-margin-left="0"
     fit-margin-right="0"
     fit-margin-bottom="0" />
  <defs
     id="defs2507">
    <clipPath
       clipPathUnits="userSpaceOnUse"
       id="clipPath2534">
      <path
         d="M 0,1000 H 1000 V 0 H 0 Z"
         id="path2532" />
    </clipPath>
    <linearGradient
       x1="0"
       y1="0"
       x2="1"
       y2="0"
       gradientUnits="userSpaceOnUse"
       gradientTransform="matrix(3.375,-82.875,-82.875,-3.375,692.00665,544.94629)"
       spreadMethod="pad"
       id="linearGradient2564">
      <stop
         style="stop-opacity:1;stop-color:#30077f"
         offset="0"
         id="stop2556" />
      <stop
         style="stop-opacity:1;stop-color:#30077f"
         offset="0.535622"
         id="stop2558" />
      <stop
         style="stop-opacity:1;stop-color:#30077f"
         offset="0.70317991"
         id="stop2560" />
      <stop
         style="stop-opacity:1;stop-color:#b60d95"
         offset="1"
         id="stop2562" />
    </linearGradient>
    <linearGradient
       x1="0"
       y1="0"
       x2="1"
       y2="0"
       gradientUnits="userSpaceOnUse"
       gradientTransform="matrix(0,-95.683067,-95.683067,0,578.34375,541.7312)"
       spreadMethod="pad"
       id="linearGradient2588">
      <stop
         style="stop-opacity:1;stop-color:#30077f"
         offset="0"
         id="stop2580" />
      <stop
         style="stop-opacity:1;stop-color:#30077f"
         offset="0.535622"
         id="stop2582" />
      <stop
         style="stop-opacity:1;stop-color:#30077f"
         offset="0.70317991"
         id="stop2584" />
      <stop
         style="stop-opacity:1;stop-color:#b60d95"
         offset="1"
         id="stop2586" />
    </linearGradient>
    <linearGradient
       x1="0"
       y1="0"
       x2="1"
       y2="0"
       gradientUnits="userSpaceOnUse"
       gradientTransform="matrix(0,-96.892334,-96.892334,0,444.21875,542.7312)"
       spreadMethod="pad"
       id="linearGradient2612">
      <stop
         style="stop-opacity:1;stop-color:#30077f"
         offset="0"
         id="stop2604" />
      <stop
         style="stop-opacity:1;stop-color:#30077f"
         offset="0.592152"
         id="stop2606" />
      <stop
         style="stop-opacity:1;stop-color:#30077f"
         offset="0.73931263"
         id="stop2608" />
      <stop
         style="stop-opacity:1;stop-color:#b60d95"
         offset="1"
         id="stop2610" />
    </linearGradient>
    <linearGradient
       x1="0"
       y1="0"
       x2="1"
       y2="0"
       gradientUnits="userSpaceOnUse"
       gradientTransform="matrix(-2.25,-93.749992,-93.749992,2.25,315.8642,542.01819)"
       spreadMethod="pad"
       id="linearGradient2636">
      <stop
         style="stop-opacity:1;stop-color:#30077f"
         offset="0"
         id="stop2628" />
      <stop
         style="stop-opacity:1;stop-color:#30077f"
         offset="0.560285"
         id="stop2630" />
      <stop
         style="stop-opacity:1;stop-color:#30077f"
         offset="0.71894395"
         id="stop2632" />
      <stop
         style="stop-opacity:1;stop-color:#b60d95"
         offset="1"
         id="stop2634" />
    </linearGradient>
    <clipPath
       clipPathUnits="userSpaceOnUse"
       id="clipPath2646">
      <path
         d="M 0,1000 H 1000 V 0 H 0 Z"
         id="path2644" />
    </clipPath>
    <linearGradient
       x1="0"
       y1="0"
       x2="1"
       y2="0"
       gradientUnits="userSpaceOnUse"
       gradientTransform="matrix(4.5,-74,-74,-4.5,694.94855,545.42889)"
       spreadMethod="pad"
       id="linearGradient2686">
      <stop
         style="stop-opacity:1;stop-color:#2f1a8b"
         offset="0"
         id="stop2676" />
      <stop
         style="stop-opacity:1;stop-color:#2f1a8b"
         offset="0.05296826"
         id="stop2678" />
      <stop
         style="stop-opacity:1;stop-color:#31dcf8"
         offset="0.300773"
         id="stop2680" />
      <stop
         style="stop-opacity:1;stop-color:#ffffff"
         offset="0.557812"
         id="stop2682" />
      <stop
         style="stop-opacity:1;stop-color:#ffffff"
         offset="1"
         id="stop2684" />
    </linearGradient>
    <clipPath
       clipPathUnits="userSpaceOnUse"
       id="clipPath2696">
      <path
         d="M 0,1000 H 1000 V 0 H 0 Z"
         id="path2694" />
    </clipPath>
    <linearGradient
       x1="0"
       y1="0"
       x2="1"
       y2="0"
       gradientUnits="userSpaceOnUse"
       gradientTransform="matrix(0,-64.608917,-64.608917,0,311.26593,547.6062)"
       spreadMethod="pad"
       id="linearGradient3002">
      <stop
         style="stop-opacity:1;stop-color:#2f1a8b"
         offset="0"
         id="stop2994" />
      <stop
         style="stop-opacity:1;stop-color:#31dcf8"
         offset="0.420103"
         id="stop2996" />
      <stop
         style="stop-opacity:1;stop-color:#ffffff"
         offset="0.671347"
         id="stop2998" />
      <stop
         style="stop-opacity:1;stop-color:#ffffff"
         offset="1"
         id="stop3000" />
    </linearGradient>
    <linearGradient
       x1="0"
       y1="0"
       x2="1"
       y2="0"
       gradientUnits="userSpaceOnUse"
       gradientTransform="matrix(0,-64.608917,-64.608917,0,444.46924,547.6062)"
       spreadMethod="pad"
       id="linearGradient3026">
      <stop
         style="stop-opacity:1;stop-color:#2f1a8b"
         offset="0"
         id="stop3018" />
      <stop
         style="stop-opacity:1;stop-color:#31dcf8"
         offset="0.420103"
         id="stop3020" />
      <stop
         style="stop-opacity:1;stop-color:#ffffff"
         offset="0.624914"
         id="stop3022" />
      <stop
         style="stop-opacity:1;stop-color:#ffffff"
         offset="1"
         id="stop3024" />
    </linearGradient>
    <linearGradient
       x1="0"
       y1="0"
       x2="1"
       y2="0"
       gradientUnits="userSpaceOnUse"
       gradientTransform="matrix(0,-64.608917,-64.608917,0,578.20605,547.6062)"
       spreadMethod="pad"
       id="linearGradient3050">
      <stop
         style="stop-opacity:1;stop-color:#2f1a8b"
         offset="0"
         id="stop3042" />
      <stop
         style="stop-opacity:1;stop-color:#31dcf8"
         offset="0.420103"
         id="stop3044" />
      <stop
         style="stop-opacity:1;stop-color:#ffffff"
         offset="0.655869"
         id="stop3046" />
      <stop
         style="stop-opacity:1;stop-color:#ffffff"
         offset="1"
         id="stop3048" />
    </linearGradient>
    <clipPath
       clipPathUnits="userSpaceOnUse"
       id="clipPath3060">
      <path
         d="M 0,1000 H 1000 V 0 H 0 Z"
         id="path3058" />
    </clipPath>
    <clipPath
       clipPathUnits="userSpaceOnUse"
       id="clipPath3984">
      <path
         d="M 3.363,13.618 H 1000 V 1000 H 3.363 Z"
         id="path3982" />
    </clipPath>
    <clipPath
       clipPathUnits="userSpaceOnUse"
       id="clipPath3998">
      <path
         d="M 0,1000 H 1000 V 0 H 0 Z"
         id="path3996" />
    </clipPath>
    <clipPath
       clipPathUnits="userSpaceOnUse"
       id="clipPath4122">
      <path
         d="M 0,1000 H 1000 V 0 H 0 Z"
         id="path4120" />
    </clipPath>
    <linearGradient
       x1="0"
       y1="0"
       x2="1"
       y2="0"
       gradientUnits="userSpaceOnUse"
       gradientTransform="matrix(0,44.472462,44.472462,0,696.23407,455.76596)"
       spreadMethod="pad"
       id="linearGradient4322">
      <stop
         style="stop-opacity:1;stop-color:#ae1291"
         offset="0"
         id="stop4316" />
      <stop
         style="stop-opacity:1;stop-color:#2c0780"
         offset="0.63312778"
         id="stop4318" />
      <stop
         style="stop-opacity:1;stop-color:#2c0780"
         offset="1"
         id="stop4320" />
    </linearGradient>
    <linearGradient
       x1="0"
       y1="0"
       x2="1"
       y2="0"
       gradientUnits="userSpaceOnUse"
       gradientTransform="matrix(0,44.240997,44.240997,0,581.42554,461.55319)"
       spreadMethod="pad"
       id="linearGradient4344">
      <stop
         style="stop-opacity:1;stop-color:#ae1291"
         offset="0"
         id="stop4338" />
      <stop
         style="stop-opacity:1;stop-color:#2c0780"
         offset="0.63312778"
         id="stop4340" />
      <stop
         style="stop-opacity:1;stop-color:#2c0780"
         offset="1"
         id="stop4342" />
    </linearGradient>
    <linearGradient
       x1="0"
       y1="0"
       x2="1"
       y2="0"
       gradientUnits="userSpaceOnUse"
       gradientTransform="matrix(0,44.240997,44.240997,0,446.82977,461.55319)"
       spreadMethod="pad"
       id="linearGradient4366">
      <stop
         style="stop-opacity:1;stop-color:#ae1291"
         offset="0"
         id="stop4360" />
      <stop
         style="stop-opacity:1;stop-color:#2c0780"
         offset="0.63312778"
         id="stop4362" />
      <stop
         style="stop-opacity:1;stop-color:#2c0780"
         offset="1"
         id="stop4364" />
    </linearGradient>
    <linearGradient
       x1="0"
       y1="0"
       x2="1"
       y2="0"
       gradientUnits="userSpaceOnUse"
       gradientTransform="matrix(0,45.281715,45.281715,0,316.73907,459.51065)"
       spreadMethod="pad"
       id="linearGradient4388">
      <stop
         style="stop-opacity:1;stop-color:#ae1291"
         offset="0"
         id="stop4382" />
      <stop
         style="stop-opacity:1;stop-color:#2c0780"
         offset="0.63312778"
         id="stop4384" />
      <stop
         style="stop-opacity:1;stop-color:#2c0780"
         offset="1"
         id="stop4386" />
    </linearGradient>
    <linearGradient
       x1="0"
       y1="0"
       x2="1"
       y2="0"
       gradientUnits="userSpaceOnUse"
       gradientTransform="matrix(0,45.281715,45.281715,0,316.59921,459.51065)"
       spreadMethod="pad"
       id="linearGradient4410">
      <stop
         style="stop-opacity:1;stop-color:#ae1291"
         offset="0"
         id="stop4404" />
      <stop
         style="stop-opacity:1;stop-color:#2c0780"
         offset="0.79306544"
         id="stop4406" />
      <stop
         style="stop-opacity:1;stop-color:#2c0780"
         offset="1"
         id="stop4408" />
    </linearGradient>
    <clipPath
       clipPathUnits="userSpaceOnUse"
       id="clipPath4420">
      <path
         d="M 0,1000 H 1000 V 0 H 0 Z"
         id="path4418" />
    </clipPath>
    <linearGradient
       x1="0"
       y1="0"
       x2="1"
       y2="0"
       gradientUnits="userSpaceOnUse"
       gradientTransform="matrix(0,93.091797,93.091797,0,313.81644,461.33865)"
       spreadMethod="pad"
       id="linearGradient4450">
      <stop
         style="stop-opacity:1;stop-color:#ffffff"
         offset="0"
         id="stop4438" />
      <stop
         style="stop-opacity:1;stop-color:#ffffff"
         offset="0.568156"
         id="stop4440" />
      <stop
         style="stop-opacity:1;stop-color:#25d8f6"
         offset="0.68163958"
         id="stop4442" />
      <stop
         style="stop-opacity:1;stop-color:#25d8f6"
         offset="0.809497"
         id="stop4444" />
      <stop
         style="stop-opacity:1;stop-color:#291c90"
         offset="1"
         id="stop4446" />
      <stop
         style="stop-opacity:1;stop-color:#291c90"
         offset="1"
         id="stop4448" />
    </linearGradient>
    <clipPath
       clipPathUnits="userSpaceOnUse"
       id="clipPath4460">
      <path
         d="M 0,1000 H 1000 V 0 H 0 Z"
         id="path4458" />
    </clipPath>
    <linearGradient
       x1="0"
       y1="0"
       x2="1"
       y2="0"
       gradientUnits="userSpaceOnUse"
       gradientTransform="matrix(-1.0604531,100.21282,100.21282,1.0604531,447.11975,455.43991)"
       spreadMethod="pad"
       id="linearGradient4730">
      <stop
         style="stop-opacity:1;stop-color:#ffffff"
         offset="0"
         id="stop4718" />
      <stop
         style="stop-opacity:1;stop-color:#ffffff"
         offset="0.568156"
         id="stop4720" />
      <stop
         style="stop-opacity:1;stop-color:#25d8f6"
         offset="0.68163958"
         id="stop4722" />
      <stop
         style="stop-opacity:1;stop-color:#25d8f6"
         offset="0.809497"
         id="stop4724" />
      <stop
         style="stop-opacity:1;stop-color:#291c90"
         offset="1"
         id="stop4726" />
      <stop
         style="stop-opacity:1;stop-color:#291c90"
         offset="1"
         id="stop4728" />
    </linearGradient>
    <clipPath
       clipPathUnits="userSpaceOnUse"
       id="clipPath4740">
      <path
         d="M 0,1000 H 1000 V 0 H 0 Z"
         id="path4738" />
    </clipPath>
    <linearGradient
       x1="0"
       y1="0"
       x2="1"
       y2="0"
       gradientUnits="userSpaceOnUse"
       gradientTransform="matrix(-0.9847391,93.057846,93.057846,0.9847391,581.39014,460.86996)"
       spreadMethod="pad"
       id="linearGradient4770">
      <stop
         style="stop-opacity:1;stop-color:#ffffff"
         offset="0"
         id="stop4758" />
      <stop
         style="stop-opacity:1;stop-color:#ffffff"
         offset="0.568156"
         id="stop4760" />
      <stop
         style="stop-opacity:1;stop-color:#25d8f6"
         offset="0.68163958"
         id="stop4762" />
      <stop
         style="stop-opacity:1;stop-color:#25d8f6"
         offset="0.809497"
         id="stop4764" />
      <stop
         style="stop-opacity:1;stop-color:#291c90"
         offset="1"
         id="stop4766" />
      <stop
         style="stop-opacity:1;stop-color:#291c90"
         offset="1"
         id="stop4768" />
    </linearGradient>
    <clipPath
       clipPathUnits="userSpaceOnUse"
       id="clipPath4780">
      <path
         d="M 0,1000 H 1000 V 0 H 0 Z"
         id="path4778" />
    </clipPath>
    <linearGradient
       x1="0"
       y1="0"
       x2="1"
       y2="0"
       gradientUnits="userSpaceOnUse"
       gradientTransform="matrix(-0.9847121,93.055298,93.055298,0.9847121,699.71411,462.08536)"
       spreadMethod="pad"
       id="linearGradient4810">
      <stop
         style="stop-opacity:1;stop-color:#ffffff"
         offset="0"
         id="stop4798" />
      <stop
         style="stop-opacity:1;stop-color:#ffffff"
         offset="0.568156"
         id="stop4800" />
      <stop
         style="stop-opacity:1;stop-color:#25d8f6"
         offset="0.68163958"
         id="stop4802" />
      <stop
         style="stop-opacity:1;stop-color:#25d8f6"
         offset="0.809497"
         id="stop4804" />
      <stop
         style="stop-opacity:1;stop-color:#291c90"
         offset="1"
         id="stop4806" />
      <stop
         style="stop-opacity:1;stop-color:#291c90"
         offset="1"
         id="stop4808" />
    </linearGradient>
    <clipPath
       clipPathUnits="userSpaceOnUse"
       id="clipPath4820">
      <path
         d="M 0,1000 H 1000 V 0 H 0 Z"
         id="path4818" />
    </clipPath>
    <clipPath
       clipPathUnits="userSpaceOnUse"
       id="clipPath5846">
      <path
         d="M 0,1000 H 1000 V 0 H 0 Z"
         id="path5844" />
    </clipPath>
    <clipPath
       clipPathUnits="userSpaceOnUse"
       id="clipPath5958">
      <path
         d="M 0,1000 H 1000 V 0 H 0 Z"
         id="path5956" />
    </clipPath>
    <clipPath
       clipPathUnits="userSpaceOnUse"
       id="clipPath6008">
      <path
         d="M 0,1000 H 1000 V 0 H 0 Z"
         id="path6006" />
    </clipPath>
    <clipPath
       clipPathUnits="userSpaceOnUse"
       id="clipPath6372">
      <path
         d="M 0,1000 H 1000 V 0 H 0 Z"
         id="path6370" />
    </clipPath>
  </defs>
  <g
     inkscape:label="Layer 1"
     inkscape:groupmode="layer"
     id="layer1"
     transform="translate(597.89332,259.6016)">
    <g
       id="g5836"
       transform="matrix(0.35277777,0,0,-0.35277777,-514.65206,-75.637797)" />
    <path
       d="m -588.80902,-167.26202 0.60043,-5.94042 c 0.23601,-2.33574 2.20592,-4.11374 4.55789,-4.11374 h 0.629 v -3.39549 c 0,-2.48426 2.01754,-4.49791 4.50568,-4.49791 h 2.56258 c -3.1369,-0.79375 -10.86803,-2.82223 -14.57854,-8.11389 -3.71123,-5.29167 -5.47794,-12.25903 -6.71513,-24.78264 -1.23684,-12.52361 -0.88335,-14.06701 2.69487,-17.4184 3.57858,-3.35139 7.99606,-2.11667 7.99606,-2.11667 l 4.46194,-3.88056 v -7.14375 l 6.1408,-2.29305 c 1.28129,-4.27743 7.06825,-8.64306 14.57854,-8.64306 7.51029,0 13.2976,4.36563 14.57854,8.64306 l 6.14116,2.29305 v 7.14375 l 4.46158,3.88056 c 0,0 4.41783,-1.23472 7.99606,2.11667 3.57858,3.35139 3.93206,4.89479 2.69522,17.4184 -1.23719,12.52361 -3.00426,19.49097 -6.71513,24.78264 -3.71086,5.29166 -11.44199,7.32014 -14.57889,8.11389 h 2.56258 c 2.48849,0 4.50603,2.01365 4.50603,4.49791 v 3.39549 h 0.629 c 2.35197,0 4.32188,1.778 4.55789,4.11374 l 0.60043,5.94042"
       style="fill:#280008;fill-opacity:1;fill-rule:nonzero;stroke:none;stroke-width:0.352778"
       id="path5854"
       sodipodi:nodetypes="ccscssccccccccsccccccscsscscc" />
    <g
       id="g6030"
       transform="matrix(0.35277777,0,0,-0.35277777,-484.51369,-177.13101)" />
    <g
       id="g6034"
       transform="matrix(0.35277777,0,0,-0.35277777,-575.16622,-188.69344)">
      <path
         d="m 0,0 c -5.719,6 -8.156,11.25 -8.156,11.25 -14.25,4.219 -27.094,13.25 -32.219,42.25 -5.125,29 -5.875,55.25 -5.375,62 0.5,6.75 8.875,8.25 12.875,3 4,-5.25 8.25,-11.5 8.25,-11.5 v 15.375 c -6.375,10.5 -17.268,10.27 -24.5,5 -8.063,-5.875 -6.5,-14.25 -5,-43.625 1.5,-29.375 9.375,-54.375 16.25,-63.25 C -29.65,9.882 -15.625,1.75 0,0"
         style="fill:#f7ec32;fill-opacity:1;fill-rule:nonzero;stroke:none"
         id="path6036" />
    </g>
    <g
       id="g6038"
       transform="matrix(0.35277777,0,0,-0.35277777,-587.87035,-195.13576)">
      <path
         d="m 0,0 c -10.305,21.16 -12.617,44.547 -14.613,65.176 -2.25,23.25 -2.25,31.687 0.75,38.062 2.231,4.742 8.718,8.542 17.296,8.177 -5.561,2.425 -11.831,1.134 -16.546,-2.302 -8.063,-5.875 -6.5,-14.25 -5,-43.625 1.5,-29.375 9.375,-54.375 16.25,-63.25 C -1.274,1.478 -0.646,0.733 0,0"
         style="fill:#fffffa;fill-opacity:1;fill-rule:nonzero;stroke:none"
         id="path6040" />
    </g>
    <g
       id="g6042"
       transform="matrix(0.35277777,0,0,-0.35277777,-547.58341,-188.69344)">
      <path
         d="m 0,0 c 5.719,6 8.156,11.25 8.156,11.25 14.25,4.219 27.094,13.25 32.219,42.25 5.125,29 5.875,55.25 5.375,62 -0.5,6.75 -8.875,8.25 -12.875,3 -4,-5.25 -8.25,-11.5 -8.25,-11.5 v 15.375 c 6.375,10.5 17.268,10.27 24.5,5 8.063,-5.875 6.5,-14.25 5,-43.625 C 52.625,54.375 44.75,29.375 37.875,20.5 29.65,9.882 15.625,1.75 0,0"
         style="fill:#f7ec32;fill-opacity:1;fill-rule:nonzero;stroke:none"
         id="path6044" />
    </g>
    <g
       id="g6046"
       transform="matrix(0.35277777,0,0,-0.35277777,-543.60016,-235.77393)">
      <path
         d="m 0,0 5.646,-3.832 v -53.25 c 0,-16.75 -6.062,-47.125 -19.187,-64.562 -13.125,-17.438 -31,-28.438 -31,-28.438 h 8.25 c 30.437,21.5 44.875,48.5 44.875,94.625 v 53.813 c 0,0 -3.18,0.708 -8.584,1.644"
         style="fill:#f8931f;fill-opacity:1;fill-rule:nonzero;stroke:none"
         id="path6048" />
    </g>
    <g
       id="g6050"
       transform="matrix(0.35277777,0,0,-0.35277777,-577.15059,-199.58545)">
      <path
         d="m 0,0 c 8.731,-16.677 31.75,-18 31.75,-18 l -5,12.5 c 20.25,4 36.25,27 37.25,60 1,33 -6,30.5 -1.5,38 4.5,7.5 22.25,5.25 28,3.25 -2.682,3.471 -7.353,6.74 -11.441,9.184 -9.843,1.194 -21.81,2.191 -34.34,2.191 -31.219,0 -58.969,-6.187 -58.969,-6.187 V 47.125 C -14.25,1 0.187,-26 30.625,-47.5 h 8.25 C 8.5,-25.875 0,0 0,0"
         style="fill:#f7ec32;fill-opacity:1;fill-rule:nonzero;stroke:none"
         id="path6052" />
    </g>
    <g
       id="g6054"
       transform="matrix(0.35277777,0,0,-0.35277777,-566.34677,-182.82851)">
      <path
         d="m 0,0 h 8.25 c -30.375,21.625 -38.875,47.5 -38.875,47.5 2.975,-5.683 7.609,-9.58 12.427,-12.252 -21.521,33.896 -15.727,71.657 -9.927,80.674 C -32.396,102.293 -25,77.313 -25,77.313 c 0.125,22.187 4.875,27.437 3.875,41.437 -0.846,11.833 -2.754,22.062 -2.572,33.247 -12.763,-1.686 -21.178,-3.56 -21.178,-3.56 V 94.625 C -44.875,48.5 -30.437,21.5 0,0"
         style="fill:#fffffa;fill-opacity:1;fill-rule:nonzero;stroke:none"
         id="path6056" />
    </g>
    <g
       id="g6058"
       transform="matrix(0.35277777,0,0,-0.35277777,-545.22421,-233.36393)">
      <path
         d="m 0,0 c -2.682,3.471 -7.353,6.74 -11.441,9.184 -9.843,1.194 -21.81,2.191 -34.34,2.191 -3.456,0 -6.865,-0.079 -10.203,-0.214 C -60.09,8.619 -62.086,4.001 -53.137,-8 -40.273,-25.25 -41.75,-47.5 -59.25,-63.46 -76.75,-79.421 -86,-96 -78.073,-108.002 c 9.319,-5.17 19.323,-5.748 19.323,-5.748 l -5,12.5 c 20.25,4 36.25,27 37.25,60 1,33 -6,30.5 -1.5,38 C -23.5,4.25 -5.75,2 0,0"
         style="fill:#f8931f;fill-opacity:1;fill-rule:nonzero;stroke:none"
         id="path6060" />
    </g>
    <g
       id="g6062"
       transform="matrix(0.35277777,0,0,-0.35277777,-551.84083,-220.41966)">
      <path
         d="m 0,0 c -1.272,1.552 -3.153,2.442 -5.161,2.442 h -8.798 l 2.834,14.513 c 0.467,2.39 -0.154,4.838 -1.702,6.717 -1.548,1.88 -3.832,2.958 -6.267,2.958 h -20.588 c -2.399,0 -4.461,-1.705 -4.911,-4.061 l -8.812,-46.099 c -0.281,-1.465 0.107,-2.977 1.057,-4.126 0.951,-1.148 2.363,-1.813 3.854,-1.813 h 10.416 l -3.032,-15.614 c -0.38,-1.963 0.131,-3.974 1.404,-5.516 1.271,-1.543 3.148,-2.427 5.147,-2.427 h 12.627 l 0.182,-0.408 c 0.803,-1.805 2.593,-2.967 4.568,-2.967 h 6.282 c 1.717,0 3.315,0.882 4.231,2.336 0.915,1.454 1.02,3.276 0.276,4.825 l -0.681,1.423 C -7.062,-47.766 1.383,-5.54 1.383,-5.54 1.776,-3.572 1.272,-1.553 0,0"
         style="fill:#f4eb3c;fill-opacity:1;fill-rule:nonzero;stroke:none"
         id="path6064" />
    </g>
    <g
       id="g6066"
       transform="matrix(0.35277777,0,0,-0.35277777,-560.79532,-225.7446)">
      <path
         d="m 0,0 -2.354,-12.902 h -9.644 l 2.762,14.344 h 8.034 C -0.439,1.442 0.138,0.75 0,0 m -5.835,-31.961 c -0.105,-0.581 -0.611,-1.003 -1.202,-1.003 h -8.824 l 2.744,14.25 h 9.701 z M 5.289,7.536 h -20.588 l -8.812,-46.099 h 19.864 c 2.511,0 4.671,1.778 5.151,4.242 l 2.953,15.124 -4.437,2.545 h 2.036 c 1.684,0 3.131,1.193 3.453,2.844 L 8.351,3.819 C 8.727,5.745 7.252,7.536 5.289,7.536"
         style="fill:#fffffa;fill-opacity:1;fill-rule:nonzero;stroke:none"
         id="path6068" />
    </g>
    <g
       id="g6070"
       transform="matrix(0.35277777,0,0,-0.35277777,-556.4073,-204.30439)">
      <path
         d="m 0,0 8.425,42.122 c 0.207,1.035 -0.585,2.002 -1.641,2.002 h -17.766 c 0,0 -0.068,1.312 -2.13,1.418 -2.063,0.107 -0.75,-2.356 -0.75,-2.356 l 2.718,-4.875 H 0.481 L -5.885,7.5 h -4.79 l 1.433,-3.22 h -6.612 l 2.085,13.687 h -7.125 l -3.363,-17.32 c -0.2,-1.033 0.591,-1.992 1.643,-1.992 h 15.875 l 1.502,-3.375 h 6.281 l -1.763,3.675 C -0.361,-0.805 -0.089,-0.446 0,0"
         style="fill:#fffffa;fill-opacity:1;fill-rule:nonzero;stroke:none"
         id="path6072" />
    </g>
    <g
       id="g6074"
       transform="matrix(0.35277777,0,0,-0.35277777,-564.67521,-220.84032)">
      <path
         d="m 0,0 2.762,14.344 h 8.034 c 0.763,0 1.34,-0.692 1.202,-1.442 L 9.644,0 Z m 6.163,-19.06 c -0.105,-0.581 -0.611,-1.002 -1.202,-1.002 h -8.824 l 2.744,14.25 h 9.701 z m 18.274,-28.814 8.424,42.123 c 0.207,1.035 -0.585,2.001 -1.64,2.001 H 13.454 c 1.684,0 3.131,1.192 3.453,2.844 l 3.442,17.627 c 0.376,1.925 -1.099,3.716 -3.062,3.716 H -3.301 l -8.812,-46.099 H 7.751 c 2.511,0 4.671,1.779 5.151,4.243 l 2.315,11.856 h 9.701 l -6.366,-30.81 h -4.79 l 1.432,-3.221 H 8.582 l 2.086,13.688 H 3.543 L 0.18,-47.226 c -0.201,-1.033 0.591,-1.993 1.642,-1.993 h 15.875 l 1.502,-3.375 h 6.281 l -1.762,3.676 c 0.357,0.239 0.63,0.598 0.719,1.044"
         style="fill:#260007;fill-opacity:1;fill-rule:nonzero;stroke:none"
         id="path6076" />
    </g>
    <g
       id="g6078"
       transform="matrix(0.35277777,0,0,-0.35277777,-546.52507,-238.76996)">
      <path
         d="m 0,0 v -1.824 c -3.25,0.75 -10.563,1.625 -10.563,1.625 v 2.406 c -7.635,1.169 -17.868,2 -31.531,2 -46.125,0 -53.156,-9.469 -53.156,-9.469 0,0 29.531,5.344 53.156,5.344 23.625,0 53.157,-5.344 53.157,-5.344 0,0 -2.034,2.733 -11.063,5.262"
         style="fill:#f7ec32;fill-opacity:1;fill-rule:nonzero;stroke:none"
         id="path6080" />
    </g>
    <g
       id="g6082"
       transform="matrix(0.35277777,0,0,-0.35277777,-546.39278,-242.53615)">
      <path
         d="m 0,0 v -4.312 c 0,0 -5.937,1.312 -10.813,1.999 0,0 0.08,2.815 0,4.563 C -10.938,5 -27.187,9.313 -27.187,9.313 -15.188,9.625 -4.937,7.437 -2.438,5.437 0.062,3.438 0,2.625 0,0 m -15.125,13.662 v -2.849 c -5.625,1.312 -11.187,1.437 -11.187,1.437 v 2.891 c -4.759,0.435 -10.134,0.703 -16.157,0.703 -32.062,0 -45.781,-7.594 -45.781,-7.594 V -7.219 c 0,0 19.344,4.781 45.781,4.781 26.438,0 45.782,-4.781 45.782,-4.781 V 8.25 c 0,0 -5.738,3.168 -18.438,5.412"
         style="fill:#f7ec32;fill-opacity:1;fill-rule:nonzero;stroke:none"
         id="path6084" />
    </g>
    <g
       id="g6086"
       transform="matrix(0.35277777,0,0,-0.35277777,-580.12716,-236.91375)">
      <path
         d="M 0,0 C 0,0 6.412,1.16 15.647,2.399 15.911,4.15 16.31,5.595 16.636,6.588 2.829,3.802 0,0 0,0"
         style="fill:#fffffa;fill-opacity:1;fill-rule:nonzero;stroke:none"
         id="path6088" />
    </g>
    <g
       id="g6090"
       transform="matrix(0.35277777,0,0,-0.35277777,-555.67525,-247.87742)">
      <path
         d="m 0,0 c -4.759,0.435 -10.134,0.703 -16.156,0.703 -32.063,0 -45.782,-7.594 -45.782,-7.594 v -15.468 c 0,0 4.209,1.039 11.376,2.149 0.018,6.697 0.232,10.374 2.749,12.569 2.628,2.292 11.666,5.388 47.813,5.525 z"
         style="fill:#fffffa;fill-opacity:1;fill-rule:nonzero;stroke:none"
         id="path6092" />
    </g>
    <g
       id="g6094"
       transform="matrix(0.35277777,0,0,-0.35277777,-551.72855,-247.19528)">
      <path
         d="M 0,0 C 0.661,0.033 1.27,0.07 1.839,0.111 1.239,0.227 0.635,0.343 0,0.455 Z"
         style="fill:#fffffa;fill-opacity:1;fill-rule:nonzero;stroke:none"
         id="path6096" />
    </g>
    <g
       id="g6098"
       transform="matrix(0.35277777,0,0,-0.35277777,-557.73677,-250.3083)">
      <path
         d="M 0,0 C 0,0 -7.969,5.625 -18.844,6.375 -3.656,9.188 8.906,5.25 13.781,-1.219 13.781,-1.219 8.25,-0.281 0,0 m -10.313,12.938 c -15.093,0 -26.578,-8.063 -29.812,-17.813 0,0 18,2.344 29.812,2.344 C 1.5,-2.531 19.5,-4.875 19.5,-4.875 16.266,4.875 4.781,12.938 -10.313,12.938"
         style="fill:#f7ec32;fill-opacity:1;fill-rule:nonzero;stroke:none"
         id="path6100" />
    </g>
    <g
       id="g6102"
       transform="matrix(0.35277777,0,0,-0.35277777,-571.89198,-248.58851)">
      <path
         d="m 0,0 c 0,0 3.037,0.396 7.432,0.861 6.129,9.993 15.63,14.695 25.134,16.86 -0.903,0.06 -1.821,0.091 -2.754,0.091 C 14.719,17.812 3.234,9.75 0,0"
         style="fill:#fffffa;fill-opacity:1;fill-rule:nonzero;stroke:none"
         id="path6104" />
    </g>
    <g
       id="g6106"
       transform="matrix(0.35277777,0,0,-0.35277777,-584.92684,-167.30629)">
      <path
         d="m 0,0 h 19.168 l 2.162,8.533 c 0.125,0.495 0.57,0.842 1.081,0.842 h 109.882 c 0,0 1.5,6.75 -11.5,6.75 H 9.418 C 1.418,16.125 0,13.875 0,0"
         style="fill:#f7ec32;fill-opacity:1;fill-rule:nonzero;stroke:none"
         id="path6108" />
    </g>
    <g
       id="g6110"
       transform="matrix(0.35277777,0,0,-0.35277777,-584.92684,-167.30629)">
      <path
         d="m 0,0 h 11.444 l 2.717,16.125 H 9.418 C 1.418,16.125 0,13.875 0,0"
         style="fill:#fffffa;fill-opacity:1;fill-rule:nonzero;stroke:none"
         id="path6112" />
    </g>
    <g
       id="g6114"
       transform="matrix(0.35277777,0,0,-0.35277777,-579.62004,-174.84691)">
      <path
         d="m 0,0 h 11.875 l 4.359,12.137 c 0.16,0.442 0.58,0.738 1.051,0.738 H 101.5 c 0,0 0,5.25 -8.25,5.25 H 9.75 C 3.625,18.125 1.5,15.625 1,11.5 0.5,7.375 0,0 0,0"
         style="fill:#f7ec32;fill-opacity:1;fill-rule:nonzero;stroke:none"
         id="path6116" />
    </g>
    <g
       id="g6118"
       transform="matrix(0.35277777,0,0,-0.35277777,-575.51727,-181.24101)">
      <path
         d="m 0,0 h -1.88 c -6.125,0 -8.25,-2.5 -8.75,-6.625 -0.5,-4.125 -1,-11.5 -1,-11.5 h 7.122 z"
         style="fill:#fffffa;fill-opacity:1;fill-rule:nonzero;stroke:none"
         id="path6120" />
    </g>
    <g
       id="g6138"
       transform="matrix(0.35277777,0,0,-0.35277777,-513.34191,-210.78615)">
      <path
         d="m 0,0 -3.75,-5.125 19.379,-5.669 c 1.176,1.734 2.345,3.461 3.505,5.175 z"
         style="fill:#fffeff;fill-opacity:1;fill-rule:nonzero;stroke:none"
         id="path6140" />
    </g>
    <g
       id="g6150"
       transform="matrix(0.35277777,0,0,-0.35277777,-507.43289,-219.29691)">
      <path
         d="m 0,0 18.777,-5.494 c 1.216,1.801 2.383,3.529 3.496,5.18 L 3.75,5.125 Z"
         style="fill:#fffeff;fill-opacity:1;fill-rule:nonzero;stroke:none"
         id="path6152" />
    </g>
    <g
       id="g6154"
       transform="matrix(0.35277777,0,0,-0.35277777,-509.72594,-215.81323)">
      <path
         d="m 0,0 -3.75,-5.125 18.873,-5.521 c 1.188,1.754 2.356,3.484 3.501,5.177 z"
         style="fill:#fffeff;fill-opacity:1;fill-rule:nonzero;stroke:none"
         id="path6156" />
    </g>
    <g
       id="g6178"
       transform="matrix(0.35277777,0,0,-0.35277777,-609.40771,-210.78615)">
      <path
         d="m 0,0 3.75,-5.125 -19.379,-5.669 c -1.176,1.735 -2.345,3.461 -3.505,5.175 z"
         style="fill:#fffeff;fill-opacity:1;fill-rule:nonzero;stroke:none"
         id="path6180" />
    </g>
    <g
       id="g6190"
       transform="matrix(0.35277777,0,0,-0.35277777,-615.31674,-219.29691)">
      <path
         d="m 0,0 -18.777,-5.494 c -1.216,1.801 -2.383,3.529 -3.496,5.18 L -3.75,5.125 Z"
         style="fill:#fffeff;fill-opacity:1;fill-rule:nonzero;stroke:none"
         id="path6192" />
    </g>
    <g
       id="g6194"
       transform="matrix(0.35277777,0,0,-0.35277777,-613.02368,-215.81323)">
      <path
         d="m 0,0 3.75,-5.125 -18.873,-5.521 c -1.188,1.754 -2.356,3.484 -3.501,5.177 z"
         style="fill:#fffeff;fill-opacity:1;fill-rule:nonzero;stroke:none"
         id="path6196" />
    </g>
  </g>
</svg>
