<?xml version="1.0" encoding="UTF-8" standalone="no"?>
<!-- Created with Inkscape (http://www.inkscape.org/) -->

<svg
   width="205.77986mm"
   height="230.43867mm"
   viewBox="0 0 205.77986 230.43867"
   version="1.1"
   id="svg2510"
   inkscape:version="1.1 (c68e22c387, 2021-05-23)"
   sodipodi:docname="logo.svg"
   xmlns:inkscape="http://www.inkscape.org/namespaces/inkscape"
   xmlns:sodipodi="http://sodipodi.sourceforge.net/DTD/sodipodi-0.dtd"
   xmlns="http://www.w3.org/2000/svg"
   xmlns:svg="http://www.w3.org/2000/svg">
  <sodipodi:namedview
     id="namedview2512"
     pagecolor="#ffffff"
     bordercolor="#666666"
     borderopacity="1.0"
     inkscape:pageshadow="2"
     inkscape:pageopacity="0.0"
     inkscape:pagecheckerboard="0"
     inkscape:document-units="mm"
     showgrid="false"
     fit-margin-top="0"
     fit-margin-left="0"
     fit-margin-right="0"
     fit-margin-bottom="0"
     inkscape:zoom="0.52410025"
     inkscape:cx="603.8921"
     inkscape:cy="466.51381"
     inkscape:window-width="1920"
     inkscape:window-height="1017"
     inkscape:window-x="1912"
     inkscape:window-y="1072"
     inkscape:window-maximized="1"
     inkscape:current-layer="g5842" />
  <defs
     id="defs2507">
    <clipPath
       clipPathUnits="userSpaceOnUse"
       id="clipPath2534">
      <path
         d="M 0,1000 H 1000 V 0 H 0 Z"
         id="path2532" />
    </clipPath>
    <linearGradient
       x1="0"
       y1="0"
       x2="1"
       y2="0"
       gradientUnits="userSpaceOnUse"
       gradientTransform="matrix(3.375,-82.875,-82.875,-3.375,692.00665,544.94629)"
       spreadMethod="pad"
       id="linearGradient2564">
      <stop
         style="stop-opacity:1;stop-color:#30077f"
         offset="0"
         id="stop2556" />
      <stop
         style="stop-opacity:1;stop-color:#30077f"
         offset="0.535622"
         id="stop2558" />
      <stop
         style="stop-opacity:1;stop-color:#30077f"
         offset="0.70317991"
         id="stop2560" />
      <stop
         style="stop-opacity:1;stop-color:#b60d95"
         offset="1"
         id="stop2562" />
    </linearGradient>
    <linearGradient
       x1="0"
       y1="0"
       x2="1"
       y2="0"
       gradientUnits="userSpaceOnUse"
       gradientTransform="matrix(0,-95.683067,-95.683067,0,578.34375,541.7312)"
       spreadMethod="pad"
       id="linearGradient2588">
      <stop
         style="stop-opacity:1;stop-color:#30077f"
         offset="0"
         id="stop2580" />
      <stop
         style="stop-opacity:1;stop-color:#30077f"
         offset="0.535622"
         id="stop2582" />
      <stop
         style="stop-opacity:1;stop-color:#30077f"
         offset="0.70317991"
         id="stop2584" />
      <stop
         style="stop-opacity:1;stop-color:#b60d95"
         offset="1"
         id="stop2586" />
    </linearGradient>
    <linearGradient
       x1="0"
       y1="0"
       x2="1"
       y2="0"
       gradientUnits="userSpaceOnUse"
       gradientTransform="matrix(0,-96.892334,-96.892334,0,444.21875,542.7312)"
       spreadMethod="pad"
       id="linearGradient2612">
      <stop
         style="stop-opacity:1;stop-color:#30077f"
         offset="0"
         id="stop2604" />
      <stop
         style="stop-opacity:1;stop-color:#30077f"
         offset="0.592152"
         id="stop2606" />
      <stop
         style="stop-opacity:1;stop-color:#30077f"
         offset="0.73931263"
         id="stop2608" />
      <stop
         style="stop-opacity:1;stop-color:#b60d95"
         offset="1"
         id="stop2610" />
    </linearGradient>
    <linearGradient
       x1="0"
       y1="0"
       x2="1"
       y2="0"
       gradientUnits="userSpaceOnUse"
       gradientTransform="matrix(-2.25,-93.749992,-93.749992,2.25,315.8642,542.01819)"
       spreadMethod="pad"
       id="linearGradient2636">
      <stop
         style="stop-opacity:1;stop-color:#30077f"
         offset="0"
         id="stop2628" />
      <stop
         style="stop-opacity:1;stop-color:#30077f"
         offset="0.560285"
         id="stop2630" />
      <stop
         style="stop-opacity:1;stop-color:#30077f"
         offset="0.71894395"
         id="stop2632" />
      <stop
         style="stop-opacity:1;stop-color:#b60d95"
         offset="1"
         id="stop2634" />
    </linearGradient>
    <clipPath
       clipPathUnits="userSpaceOnUse"
       id="clipPath2646">
      <path
         d="M 0,1000 H 1000 V 0 H 0 Z"
         id="path2644" />
    </clipPath>
    <linearGradient
       x1="0"
       y1="0"
       x2="1"
       y2="0"
       gradientUnits="userSpaceOnUse"
       gradientTransform="matrix(4.5,-74,-74,-4.5,694.94855,545.42889)"
       spreadMethod="pad"
       id="linearGradient2686">
      <stop
         style="stop-opacity:1;stop-color:#2f1a8b"
         offset="0"
         id="stop2676" />
      <stop
         style="stop-opacity:1;stop-color:#2f1a8b"
         offset="0.05296826"
         id="stop2678" />
      <stop
         style="stop-opacity:1;stop-color:#31dcf8"
         offset="0.300773"
         id="stop2680" />
      <stop
         style="stop-opacity:1;stop-color:#ffffff"
         offset="0.557812"
         id="stop2682" />
      <stop
         style="stop-opacity:1;stop-color:#ffffff"
         offset="1"
         id="stop2684" />
    </linearGradient>
    <clipPath
       clipPathUnits="userSpaceOnUse"
       id="clipPath2696">
      <path
         d="M 0,1000 H 1000 V 0 H 0 Z"
         id="path2694" />
    </clipPath>
    <linearGradient
       x1="0"
       y1="0"
       x2="1"
       y2="0"
       gradientUnits="userSpaceOnUse"
       gradientTransform="matrix(0,-64.608917,-64.608917,0,311.26593,547.6062)"
       spreadMethod="pad"
       id="linearGradient3002">
      <stop
         style="stop-opacity:1;stop-color:#2f1a8b"
         offset="0"
         id="stop2994" />
      <stop
         style="stop-opacity:1;stop-color:#31dcf8"
         offset="0.420103"
         id="stop2996" />
      <stop
         style="stop-opacity:1;stop-color:#ffffff"
         offset="0.671347"
         id="stop2998" />
      <stop
         style="stop-opacity:1;stop-color:#ffffff"
         offset="1"
         id="stop3000" />
    </linearGradient>
    <linearGradient
       x1="0"
       y1="0"
       x2="1"
       y2="0"
       gradientUnits="userSpaceOnUse"
       gradientTransform="matrix(0,-64.608917,-64.608917,0,444.46924,547.6062)"
       spreadMethod="pad"
       id="linearGradient3026">
      <stop
         style="stop-opacity:1;stop-color:#2f1a8b"
         offset="0"
         id="stop3018" />
      <stop
         style="stop-opacity:1;stop-color:#31dcf8"
         offset="0.420103"
         id="stop3020" />
      <stop
         style="stop-opacity:1;stop-color:#ffffff"
         offset="0.624914"
         id="stop3022" />
      <stop
         style="stop-opacity:1;stop-color:#ffffff"
         offset="1"
         id="stop3024" />
    </linearGradient>
    <linearGradient
       x1="0"
       y1="0"
       x2="1"
       y2="0"
       gradientUnits="userSpaceOnUse"
       gradientTransform="matrix(0,-64.608917,-64.608917,0,578.20605,547.6062)"
       spreadMethod="pad"
       id="linearGradient3050">
      <stop
         style="stop-opacity:1;stop-color:#2f1a8b"
         offset="0"
         id="stop3042" />
      <stop
         style="stop-opacity:1;stop-color:#31dcf8"
         offset="0.420103"
         id="stop3044" />
      <stop
         style="stop-opacity:1;stop-color:#ffffff"
         offset="0.655869"
         id="stop3046" />
      <stop
         style="stop-opacity:1;stop-color:#ffffff"
         offset="1"
         id="stop3048" />
    </linearGradient>
    <clipPath
       clipPathUnits="userSpaceOnUse"
       id="clipPath3060">
      <path
         d="M 0,1000 H 1000 V 0 H 0 Z"
         id="path3058" />
    </clipPath>
    <clipPath
       clipPathUnits="userSpaceOnUse"
       id="clipPath3984">
      <path
         d="M 3.363,13.618 H 1000 V 1000 H 3.363 Z"
         id="path3982" />
    </clipPath>
    <clipPath
       clipPathUnits="userSpaceOnUse"
       id="clipPath3998">
      <path
         d="M 0,1000 H 1000 V 0 H 0 Z"
         id="path3996" />
    </clipPath>
    <clipPath
       clipPathUnits="userSpaceOnUse"
       id="clipPath4122">
      <path
         d="M 0,1000 H 1000 V 0 H 0 Z"
         id="path4120" />
    </clipPath>
    <linearGradient
       x1="0"
       y1="0"
       x2="1"
       y2="0"
       gradientUnits="userSpaceOnUse"
       gradientTransform="matrix(0,44.472462,44.472462,0,696.23407,455.76596)"
       spreadMethod="pad"
       id="linearGradient4322">
      <stop
         style="stop-opacity:1;stop-color:#ae1291"
         offset="0"
         id="stop4316" />
      <stop
         style="stop-opacity:1;stop-color:#2c0780"
         offset="0.63312778"
         id="stop4318" />
      <stop
         style="stop-opacity:1;stop-color:#2c0780"
         offset="1"
         id="stop4320" />
    </linearGradient>
    <linearGradient
       x1="0"
       y1="0"
       x2="1"
       y2="0"
       gradientUnits="userSpaceOnUse"
       gradientTransform="matrix(0,44.240997,44.240997,0,581.42554,461.55319)"
       spreadMethod="pad"
       id="linearGradient4344">
      <stop
         style="stop-opacity:1;stop-color:#ae1291"
         offset="0"
         id="stop4338" />
      <stop
         style="stop-opacity:1;stop-color:#2c0780"
         offset="0.63312778"
         id="stop4340" />
      <stop
         style="stop-opacity:1;stop-color:#2c0780"
         offset="1"
         id="stop4342" />
    </linearGradient>
    <linearGradient
       x1="0"
       y1="0"
       x2="1"
       y2="0"
       gradientUnits="userSpaceOnUse"
       gradientTransform="matrix(0,44.240997,44.240997,0,446.82977,461.55319)"
       spreadMethod="pad"
       id="linearGradient4366">
      <stop
         style="stop-opacity:1;stop-color:#ae1291"
         offset="0"
         id="stop4360" />
      <stop
         style="stop-opacity:1;stop-color:#2c0780"
         offset="0.63312778"
         id="stop4362" />
      <stop
         style="stop-opacity:1;stop-color:#2c0780"
         offset="1"
         id="stop4364" />
    </linearGradient>
    <linearGradient
       x1="0"
       y1="0"
       x2="1"
       y2="0"
       gradientUnits="userSpaceOnUse"
       gradientTransform="matrix(0,45.281715,45.281715,0,316.73907,459.51065)"
       spreadMethod="pad"
       id="linearGradient4388">
      <stop
         style="stop-opacity:1;stop-color:#ae1291"
         offset="0"
         id="stop4382" />
      <stop
         style="stop-opacity:1;stop-color:#2c0780"
         offset="0.63312778"
         id="stop4384" />
      <stop
         style="stop-opacity:1;stop-color:#2c0780"
         offset="1"
         id="stop4386" />
    </linearGradient>
    <linearGradient
       x1="0"
       y1="0"
       x2="1"
       y2="0"
       gradientUnits="userSpaceOnUse"
       gradientTransform="matrix(0,45.281715,45.281715,0,316.59921,459.51065)"
       spreadMethod="pad"
       id="linearGradient4410">
      <stop
         style="stop-opacity:1;stop-color:#ae1291"
         offset="0"
         id="stop4404" />
      <stop
         style="stop-opacity:1;stop-color:#2c0780"
         offset="0.79306544"
         id="stop4406" />
      <stop
         style="stop-opacity:1;stop-color:#2c0780"
         offset="1"
         id="stop4408" />
    </linearGradient>
    <clipPath
       clipPathUnits="userSpaceOnUse"
       id="clipPath4420">
      <path
         d="M 0,1000 H 1000 V 0 H 0 Z"
         id="path4418" />
    </clipPath>
    <linearGradient
       x1="0"
       y1="0"
       x2="1"
       y2="0"
       gradientUnits="userSpaceOnUse"
       gradientTransform="matrix(0,93.091797,93.091797,0,313.81644,461.33865)"
       spreadMethod="pad"
       id="linearGradient4450">
      <stop
         style="stop-opacity:1;stop-color:#ffffff"
         offset="0"
         id="stop4438" />
      <stop
         style="stop-opacity:1;stop-color:#ffffff"
         offset="0.568156"
         id="stop4440" />
      <stop
         style="stop-opacity:1;stop-color:#25d8f6"
         offset="0.68163958"
         id="stop4442" />
      <stop
         style="stop-opacity:1;stop-color:#25d8f6"
         offset="0.809497"
         id="stop4444" />
      <stop
         style="stop-opacity:1;stop-color:#291c90"
         offset="1"
         id="stop4446" />
      <stop
         style="stop-opacity:1;stop-color:#291c90"
         offset="1"
         id="stop4448" />
    </linearGradient>
    <clipPath
       clipPathUnits="userSpaceOnUse"
       id="clipPath4460">
      <path
         d="M 0,1000 H 1000 V 0 H 0 Z"
         id="path4458" />
    </clipPath>
    <linearGradient
       x1="0"
       y1="0"
       x2="1"
       y2="0"
       gradientUnits="userSpaceOnUse"
       gradientTransform="matrix(-1.0604531,100.21282,100.21282,1.0604531,447.11975,455.43991)"
       spreadMethod="pad"
       id="linearGradient4730">
      <stop
         style="stop-opacity:1;stop-color:#ffffff"
         offset="0"
         id="stop4718" />
      <stop
         style="stop-opacity:1;stop-color:#ffffff"
         offset="0.568156"
         id="stop4720" />
      <stop
         style="stop-opacity:1;stop-color:#25d8f6"
         offset="0.68163958"
         id="stop4722" />
      <stop
         style="stop-opacity:1;stop-color:#25d8f6"
         offset="0.809497"
         id="stop4724" />
      <stop
         style="stop-opacity:1;stop-color:#291c90"
         offset="1"
         id="stop4726" />
      <stop
         style="stop-opacity:1;stop-color:#291c90"
         offset="1"
         id="stop4728" />
    </linearGradient>
    <clipPath
       clipPathUnits="userSpaceOnUse"
       id="clipPath4740">
      <path
         d="M 0,1000 H 1000 V 0 H 0 Z"
         id="path4738" />
    </clipPath>
    <linearGradient
       x1="0"
       y1="0"
       x2="1"
       y2="0"
       gradientUnits="userSpaceOnUse"
       gradientTransform="matrix(-0.9847391,93.057846,93.057846,0.9847391,581.39014,460.86996)"
       spreadMethod="pad"
       id="linearGradient4770">
      <stop
         style="stop-opacity:1;stop-color:#ffffff"
         offset="0"
         id="stop4758" />
      <stop
         style="stop-opacity:1;stop-color:#ffffff"
         offset="0.568156"
         id="stop4760" />
      <stop
         style="stop-opacity:1;stop-color:#25d8f6"
         offset="0.68163958"
         id="stop4762" />
      <stop
         style="stop-opacity:1;stop-color:#25d8f6"
         offset="0.809497"
         id="stop4764" />
      <stop
         style="stop-opacity:1;stop-color:#291c90"
         offset="1"
         id="stop4766" />
      <stop
         style="stop-opacity:1;stop-color:#291c90"
         offset="1"
         id="stop4768" />
    </linearGradient>
    <clipPath
       clipPathUnits="userSpaceOnUse"
       id="clipPath4780">
      <path
         d="M 0,1000 H 1000 V 0 H 0 Z"
         id="path4778" />
    </clipPath>
    <linearGradient
       x1="0"
       y1="0"
       x2="1"
       y2="0"
       gradientUnits="userSpaceOnUse"
       gradientTransform="matrix(-0.9847121,93.055298,93.055298,0.9847121,699.71411,462.08536)"
       spreadMethod="pad"
       id="linearGradient4810">
      <stop
         style="stop-opacity:1;stop-color:#ffffff"
         offset="0"
         id="stop4798" />
      <stop
         style="stop-opacity:1;stop-color:#ffffff"
         offset="0.568156"
         id="stop4800" />
      <stop
         style="stop-opacity:1;stop-color:#25d8f6"
         offset="0.68163958"
         id="stop4802" />
      <stop
         style="stop-opacity:1;stop-color:#25d8f6"
         offset="0.809497"
         id="stop4804" />
      <stop
         style="stop-opacity:1;stop-color:#291c90"
         offset="1"
         id="stop4806" />
      <stop
         style="stop-opacity:1;stop-color:#291c90"
         offset="1"
         id="stop4808" />
    </linearGradient>
    <clipPath
       clipPathUnits="userSpaceOnUse"
       id="clipPath4820">
      <path
         d="M 0,1000 H 1000 V 0 H 0 Z"
         id="path4818" />
    </clipPath>
    <clipPath
       clipPathUnits="userSpaceOnUse"
       id="clipPath5846">
      <path
         d="M 0,1000 H 1000 V 0 H 0 Z"
         id="path5844" />
    </clipPath>
    <clipPath
       clipPathUnits="userSpaceOnUse"
       id="clipPath5958">
      <path
         d="M 0,1000 H 1000 V 0 H 0 Z"
         id="path5956" />
    </clipPath>
    <clipPath
       clipPathUnits="userSpaceOnUse"
       id="clipPath6008">
      <path
         d="M 0,1000 H 1000 V 0 H 0 Z"
         id="path6006" />
    </clipPath>
    <clipPath
       clipPathUnits="userSpaceOnUse"
       id="clipPath6372">
      <path
         d="M 0,1000 H 1000 V 0 H 0 Z"
         id="path6370" />
    </clipPath>
  </defs>
  <g
     inkscape:label="Layer 1"
     inkscape:groupmode="layer"
     id="layer1"
     transform="translate(664.26465,259.6016)">
    <g
       id="g5836"
       transform="matrix(0.35277777,0,0,-0.35277777,-514.65206,-75.637797)" />
    <g
       id="g5840"
       transform="matrix(0.35277777,0,0,-0.35277777,-737.76368,32.006519)">
      <g
         id="g5842"
         clip-path="url(#clipPath5846)">
        <g
           id="g5852"
           transform="translate(475.6787,179.9187)">
          <path
             d="m 0,0 -206.566,119.44 c -13.779,7.967 -22.261,22.658 -22.261,38.552 v 54.258 h -19.724 l -18.784,25.125 9.782,130.247 c 0.734,9.766 8.885,17.315 18.697,17.315 h 10.123 v 15.766 c 0,15.309 8.172,29.456 21.446,37.125 l 125.728,72.641 c 0,0 2.693,-30.657 13.462,-47.907 12.314,-19.724 29.554,-26.375 29.554,-26.375 0,0 -3.382,-5.25 -4.884,-17.125 0,0 -16.906,1.875 -16.655,-34.125 h 6.637 l 1.702,16.839 c 0.669,6.621 6.253,11.661 12.92,11.661 h 1.783 v 9.625 c 0,7.042 5.719,12.75 12.772,12.75 h 7.264 c -8.892,2.25 -30.807,8 -41.325,23 -10.52,15 -15.528,34.75 -19.035,70.25 -3.506,35.5 -2.504,39.875 7.639,49.375 10.144,9.5 22.666,6 22.666,6 l 12.648,11 v 20.25 l 17.407,6.5 c 3.632,12.125 20.036,24.5 41.325,24.5 21.289,0 37.694,-12.375 41.325,-24.5 l 17.408,-6.5 v -20.25 l 12.647,-11 c 0,0 12.523,3.5 22.666,-6 10.144,-9.5 11.146,-13.875 7.64,-49.375 -3.507,-35.5 -8.516,-55.25 -19.035,-70.25 -10.519,-15 -32.434,-20.75 -41.326,-23 h 7.264 c 7.054,0 12.773,-5.708 12.773,-12.75 v -9.625 h 1.783 c 6.667,0 12.251,-5.04 12.92,-11.661 l 1.702,-16.839 h 6.637 c 0.251,36 -16.656,34.125 -16.656,34.125 -1.502,11.875 -4.883,17.125 -4.883,17.125 0,0 17.24,6.651 29.553,26.375 10.77,17.25 13.462,47.907 13.462,47.907 L 255.93,437.828 c 13.273,-7.669 21.446,-21.816 21.446,-37.125 v -15.766 h 10.123 c 9.812,0 17.963,-7.549 18.696,-17.315 L 315.978,237.375 297.193,212.25 H 277.47 v -54.258 c 0,-15.894 -8.483,-30.585 -22.261,-38.552 L 48.643,0 C 33.596,-8.7 15.047,-8.7 0,0"
             style="fill:#280008;fill-opacity:1;fill-rule:nonzero;stroke:none"
             id="path5854" />
        </g>
      </g>
    </g>
    <g
       id="g5856"
       transform="matrix(0.35277777,0,0,-0.35277777,-737.76368,32.006519)">
      <g
         id="g5858">
        <g
           id="g5864">
          <g
             id="g5866">
            <path
               d="m 633.969,542.481 0.688,-23.75 h 40.874 l 3.75,-73.125 h 29.25 l 6.25,8.251 -7.791,17.876 -2.771,46.998 h 40.688 l 6.249,8.251 c 0,0 -2.688,0.74 -6.972,1.919 v 0 l -0.965,13.58 h -48.748 c -5.097,1.368 -8.467,2.25 -8.69,2.25 v 0 c -1,0 -45.562,6.001 -45.562,6.001 v 0 z"
               style="fill:url(#linearGradient2564);stroke:none"
               id="path5878" />
          </g>
        </g>
      </g>
    </g>
    <g
       id="g5880"
       transform="matrix(0.35277777,0,0,-0.35277777,-737.76368,32.006519)">
      <g
         id="g5882">
        <g
           id="g5888">
          <g
             id="g5890">
            <path
               d="m 555.422,541.981 -43.482,-86.491 -5.159,-1.633 v -8.626 l 31.243,-0.125 8.15,17.063 h 57.979 l 9.187,-17.063 h 31.879 l 4.687,8.751 h -9.555 l -49.035,88.124 z m 18.008,-22.749 19.417,-36.063 h -36.642 z"
               style="fill:url(#linearGradient2588);stroke:none"
               id="path5902" />
          </g>
        </g>
      </g>
    </g>
    <g
       id="g5904"
       transform="matrix(0.35277777,0,0,-0.35277777,-737.76368,32.006519)">
      <g
         id="g5906">
        <g
           id="g5912">
          <g
             id="g5914">
            <path
               d="m 397.768,541.856 -2.505,-84.187 -4.482,-3.812 4.112,-8.626 h 102.763 v 23.625 h -74.198 v 15.281 h 68.45 v 19.687 h -68.45 V 519.2 h 72.581 v 22.656 z"
               style="fill:url(#linearGradient2612);stroke:none"
               id="path5926" />
          </g>
        </g>
      </g>
    </g>
    <g
       id="g5928"
       transform="matrix(0.35277777,0,0,-0.35277777,-737.76368,32.006519)">
      <g
         id="g5930">
        <g
           id="g5936">
          <g
             id="g5938">
            <path
               d="m 264.182,542.794 -5.589,-76.177 -1.499,3.177 -8.438,-15.937 8.438,-7.688 h 85.919 c 31.227,0 34.632,10.077 36.134,25.25 v 0 c 1.528,15.437 -6.006,23.063 -17.067,24.75 v 0 c 0,0 15.521,-0.5 15.521,22.874 v 0 c 0,21.751 -16.866,23.751 -32.998,23.751 v 0 z m 26.369,-22.657 h 50.719 c 4.35,0 7.791,-3.763 7.501,-8.202 v 0 c -0.266,-4.037 -3.544,-7.173 -7.501,-7.173 v 0 h -51.636 z m -2.016,-35.062 h 53.789 c 4.324,0 7.745,-3.743 7.455,-8.155 v 0 c -0.265,-4.011 -3.524,-7.126 -7.455,-7.126 v 0 h -54.797 z"
               style="fill:url(#linearGradient2636);stroke:none"
               id="path5950" />
          </g>
        </g>
      </g>
    </g>
    <g
       id="g5952"
       transform="matrix(0.35277777,0,0,-0.35277777,-737.76368,32.006519)">
      <g
         id="g5954"
         clip-path="url(#clipPath5958)">
        <g
           id="g5960"
           transform="translate(343.4492,484.6072)">
          <path
             d="m 0,0 v 0 c -0.271,-4.011 -3.603,-7.126 -7.623,-7.126 h -56.045 l 1.031,15.281 H -7.623 C -3.2,8.155 0.298,4.412 0,0 m -60.574,43.218 h 51.873 c 4.448,0 7.968,-3.764 7.671,-8.202 -0.272,-4.037 -3.625,-7.173 -7.671,-7.173 H -61.512 Z M 12.582,19.249 c 0,0 15.875,-0.5 15.875,22.875 0,21.75 -17.25,23.75 -33.75,23.75 h -82.25 l -7.25,-96.625 h 87.875 c 31.938,0 35.42,10.077 36.955,25.25 1.564,15.438 -6.142,23.063 -17.455,24.75"
             style="fill:#ffffff;fill-opacity:1;fill-rule:nonzero;stroke:none"
             id="path5962" />
        </g>
        <g
           id="g5964"
           transform="translate(420.5937,477.4812)">
          <path
             d="M 0,0 V 15.281 H 71.438 V 34.969 H 0 V 50.344 H 75.75 V 73 H -26.812 l -3,-96.625 H 77.438 V 0 Z"
             style="fill:#ffffff;fill-opacity:1;fill-rule:nonzero;stroke:none"
             id="path5966" />
        </g>
        <g
           id="g5968"
           transform="translate(558.459,491.9187)">
          <path
             d="M 0,0 17.697,36.063 37.645,0 Z m 58.697,-38.063 h 32.75 L 36.072,58.813 H -0.803 l -50.875,-96.876 h 33 L -10.305,-21 H 49.26 Z"
             style="fill:#ffffff;fill-opacity:1;fill-rule:nonzero;stroke:none"
             id="path5970" />
        </g>
        <g
           id="g5972"
           transform="translate(685.5312,453.8562)">
          <path
             d="m 0,0 h 29.25 l -4.313,73.125 h 40.688 l -1.687,23.75 H -45.313 l 0.688,-23.75 H -3.75 Z"
             style="fill:#ffffff;fill-opacity:1;fill-rule:nonzero;stroke:none"
             id="path5974" />
        </g>
      </g>
    </g>
    <g
       id="g5976"
       transform="matrix(0.35277777,0,0,-0.35277777,-737.76368,32.006519)">
      <g
         id="g5978">
        <g
           id="g5984">
          <g
             id="g5986">
            <path
               d="m 644.336,546.731 0.456,-15.75 h 40.789 l 3.75,-73.125 h 21.207 l -4.313,73.125 h 40.637 l -1.119,15.75 z"
               style="fill:url(#linearGradient2686);stroke:none"
               id="path6000" />
          </g>
        </g>
      </g>
    </g>
    <g
       id="g6002"
       transform="matrix(0.35277777,0,0,-0.35277777,-737.76368,32.006519)">
      <g
         id="g6004"
         clip-path="url(#clipPath6008)">
        <g
           id="g6010"
           transform="translate(283.6562,336.7312)">
          <path
             d="M 0,0 C 0,2.151 1.151,4.139 3.019,5.207 L 3.188,5.304 V 55.438 H -8.813 V 2.158 c 0,-5.223 2.801,-10.113 7.31,-12.761 L 0,-11.485 Z"
             style="fill:#ff6900;fill-opacity:1;fill-rule:nonzero;stroke:none"
             id="path6012" />
        </g>
        <g
           id="g6014"
           transform="translate(713.1562,392.1687)">
          <path
             d="m 0,0 v -50.17 l 0.105,-0.06 c 1.868,-1.069 3.02,-3.056 3.02,-5.208 v -11.521 l 1.564,0.919 C 9.199,-63.393 12,-58.503 12,-53.279 V 0 Z"
             style="fill:#ff6900;fill-opacity:1;fill-rule:nonzero;stroke:none"
             id="path6016" />
        </g>
        <g
           id="g6018"
           transform="translate(283.6562,335.7)">
          <path
             d="m 0,0 c -0.519,0.97 -0.812,2.061 -0.812,3.189 v 53.28 h -4 V 3.189 c 0,-3.598 1.837,-6.962 4.812,-8.955 z"
             style="fill:#fffaf2;fill-opacity:1;fill-rule:nonzero;stroke:none"
             id="path6020" />
        </g>
        <g
           id="g6022"
           transform="translate(717.1562,392.1687)">
          <path
             d="m 0,0 v -53.279 c 0,-1.178 -0.313,-2.317 -0.875,-3.317 v -5.681 C 2.137,-60.29 4,-56.902 4,-53.279 V 0 Z"
             style="fill:#fffaf2;fill-opacity:1;fill-rule:nonzero;stroke:none"
             id="path6024" />
        </g>
        <g
           id="g6026"
           transform="translate(375.0215,638.0159)">
          <path
             d="m 0,0 c -0.006,0.007 -0.01,0.015 -0.016,0.022 -1.508,2.207 -3.075,4.5 -4.683,6.858 l -88.199,-52.066 c -4.491,-2.652 -7.28,-7.536 -7.28,-12.744 v -15.105 h 12 v 15.105 c 0,0.983 0.531,1.908 1.382,2.411 L 2.087,-3.049 C 1.403,-2.05 0.71,-1.038 0,0"
             style="fill:#f7ec32;fill-opacity:1;fill-rule:nonzero;stroke:none"
             id="path6028" />
        </g>
        <g
           id="g6030"
           transform="translate(717.874,592.8308)">
          <path
             d="m 0,0 -88.196,52.065 c -1.609,-2.358 -3.175,-4.651 -4.684,-6.858 -0.006,-0.007 -0.011,-0.015 -0.016,-0.022 -0.709,-1.038 -1.403,-2.05 -2.086,-3.048 l 88.881,-52.47 c 0.853,-0.504 1.383,-1.429 1.383,-2.412 V -27.85 h 12 v 15.105 C 7.282,-7.536 4.492,-2.652 0,0"
             style="fill:#f7ec32;fill-opacity:1;fill-rule:nonzero;stroke:none"
             id="path6032" />
        </g>
        <g
           id="g6034"
           transform="translate(460.9062,625.6062)">
          <path
             d="m 0,0 c -5.719,6 -8.156,11.25 -8.156,11.25 -14.25,4.219 -27.094,13.25 -32.219,42.25 -5.125,29 -5.875,55.25 -5.375,62 0.5,6.75 8.875,8.25 12.875,3 4,-5.25 8.25,-11.5 8.25,-11.5 v 15.375 c -6.375,10.5 -17.268,10.27 -24.5,5 -8.063,-5.875 -6.5,-14.25 -5,-43.625 1.5,-29.375 9.375,-54.375 16.25,-63.25 C -29.65,9.882 -15.625,1.75 0,0"
             style="fill:#f7ec32;fill-opacity:1;fill-rule:nonzero;stroke:none"
             id="path6036" />
        </g>
        <g
           id="g6038"
           transform="translate(424.8945,643.8679)">
          <path
             d="m 0,0 c -10.305,21.16 -12.617,44.547 -14.613,65.176 -2.25,23.25 -2.25,31.687 0.75,38.062 2.231,4.742 8.718,8.542 17.296,8.177 -5.561,2.425 -11.831,1.134 -16.546,-2.302 -8.063,-5.875 -6.5,-14.25 -5,-43.625 1.5,-29.375 9.375,-54.375 16.25,-63.25 C -1.274,1.478 -0.646,0.733 0,0"
             style="fill:#fffffa;fill-opacity:1;fill-rule:nonzero;stroke:none"
             id="path6040" />
        </g>
        <g
           id="g6042"
           transform="translate(539.0937,625.6062)">
          <path
             d="m 0,0 c 5.719,6 8.156,11.25 8.156,11.25 14.25,4.219 27.094,13.25 32.219,42.25 5.125,29 5.875,55.25 5.375,62 -0.5,6.75 -8.875,8.25 -12.875,3 -4,-5.25 -8.25,-11.5 -8.25,-11.5 v 15.375 c 6.375,10.5 17.268,10.27 24.5,5 8.063,-5.875 6.5,-14.25 5,-43.625 C 52.625,54.375 44.75,29.375 37.875,20.5 29.65,9.882 15.625,1.75 0,0"
             style="fill:#f7ec32;fill-opacity:1;fill-rule:nonzero;stroke:none"
             id="path6044" />
        </g>
        <g
           id="g6046"
           transform="translate(550.3848,759.0627)">
          <path
             d="m 0,0 5.646,-3.832 v -53.25 c 0,-16.75 -6.062,-47.125 -19.187,-64.562 -13.125,-17.438 -31,-28.438 -31,-28.438 h 8.25 c 30.437,21.5 44.875,48.5 44.875,94.625 v 53.813 c 0,0 -3.18,0.708 -8.584,1.644"
             style="fill:#f8931f;fill-opacity:1;fill-rule:nonzero;stroke:none"
             id="path6048" />
        </g>
        <g
           id="g6050"
           transform="translate(455.2812,656.4812)">
          <path
             d="m 0,0 c 8.731,-16.677 31.75,-18 31.75,-18 l -5,12.5 c 20.25,4 36.25,27 37.25,60 1,33 -6,30.5 -1.5,38 4.5,7.5 22.25,5.25 28,3.25 -2.682,3.471 -7.353,6.74 -11.441,9.184 -9.843,1.194 -21.81,2.191 -34.34,2.191 -31.219,0 -58.969,-6.187 -58.969,-6.187 V 47.125 C -14.25,1 0.187,-26 30.625,-47.5 h 8.25 C 8.5,-25.875 0,0 0,0"
             style="fill:#f7ec32;fill-opacity:1;fill-rule:nonzero;stroke:none"
             id="path6052" />
        </g>
        <g
           id="g6054"
           transform="translate(485.9062,608.9812)">
          <path
             d="m 0,0 h 8.25 c -30.375,21.625 -38.875,47.5 -38.875,47.5 2.975,-5.683 7.609,-9.58 12.427,-12.252 -21.521,33.896 -15.727,71.657 -9.927,80.674 C -32.396,102.293 -25,77.313 -25,77.313 c 0.125,22.187 4.875,27.437 3.875,41.437 -0.846,11.833 -2.754,22.062 -2.572,33.247 -12.763,-1.686 -21.178,-3.56 -21.178,-3.56 V 94.625 C -44.875,48.5 -30.437,21.5 0,0"
             style="fill:#fffffa;fill-opacity:1;fill-rule:nonzero;stroke:none"
             id="path6056" />
        </g>
        <g
           id="g6058"
           transform="translate(545.7812,752.2312)">
          <path
             d="m 0,0 c -2.682,3.471 -7.353,6.74 -11.441,9.184 -9.843,1.194 -21.81,2.191 -34.34,2.191 -3.456,0 -6.865,-0.079 -10.203,-0.214 C -60.09,8.619 -62.086,4.001 -53.137,-8 -40.273,-25.25 -41.75,-47.5 -59.25,-63.46 -76.75,-79.421 -86,-96 -78.073,-108.002 c 9.319,-5.17 19.323,-5.748 19.323,-5.748 l -5,12.5 c 20.25,4 36.25,27 37.25,60 1,33 -6,30.5 -1.5,38 C -23.5,4.25 -5.75,2 0,0"
             style="fill:#f8931f;fill-opacity:1;fill-rule:nonzero;stroke:none"
             id="path6060" />
        </g>
        <g
           id="g6062"
           transform="translate(527.0254,715.5388)">
          <path
             d="m 0,0 c -1.272,1.552 -3.153,2.442 -5.161,2.442 h -8.798 l 2.834,14.513 c 0.467,2.39 -0.154,4.838 -1.702,6.717 -1.548,1.88 -3.832,2.958 -6.267,2.958 h -20.588 c -2.399,0 -4.461,-1.705 -4.911,-4.061 l -8.812,-46.099 c -0.281,-1.465 0.107,-2.977 1.057,-4.126 0.951,-1.148 2.363,-1.813 3.854,-1.813 h 10.416 l -3.032,-15.614 c -0.38,-1.963 0.131,-3.974 1.404,-5.516 1.271,-1.543 3.148,-2.427 5.147,-2.427 h 12.627 l 0.182,-0.408 c 0.803,-1.805 2.593,-2.967 4.568,-2.967 h 6.282 c 1.717,0 3.315,0.882 4.231,2.336 0.915,1.454 1.02,3.276 0.276,4.825 l -0.681,1.423 C -7.062,-47.766 1.383,-5.54 1.383,-5.54 1.776,-3.572 1.272,-1.553 0,0"
             style="fill:#f4eb3c;fill-opacity:1;fill-rule:nonzero;stroke:none"
             id="path6064" />
        </g>
        <g
           id="g6066"
           transform="translate(501.6426,730.6331)">
          <path
             d="m 0,0 -2.354,-12.902 h -9.644 l 2.762,14.344 h 8.034 C -0.439,1.442 0.138,0.75 0,0 m -5.835,-31.961 c -0.105,-0.581 -0.611,-1.003 -1.202,-1.003 h -8.824 l 2.744,14.25 h 9.701 z M 5.289,7.536 h -20.588 l -8.812,-46.099 h 19.864 c 2.511,0 4.671,1.778 5.151,4.242 l 2.953,15.124 -4.437,2.545 h 2.036 c 1.684,0 3.131,1.193 3.453,2.844 L 8.351,3.819 C 8.727,5.745 7.252,7.536 5.289,7.536"
             style="fill:#fffffa;fill-opacity:1;fill-rule:nonzero;stroke:none"
             id="path6068" />
        </g>
        <g
           id="g6070"
           transform="translate(514.0811,669.8577)">
          <path
             d="m 0,0 8.425,42.122 c 0.207,1.035 -0.585,2.002 -1.641,2.002 h -17.766 c 0,0 -0.068,1.312 -2.13,1.418 -2.063,0.107 -0.75,-2.356 -0.75,-2.356 l 2.718,-4.875 H 0.481 L -5.885,7.5 h -4.79 l 1.433,-3.22 h -6.612 l 2.085,13.687 h -7.125 l -3.363,-17.32 c -0.2,-1.033 0.591,-1.992 1.643,-1.992 h 15.875 l 1.502,-3.375 h 6.281 l -1.763,3.675 C -0.361,-0.805 -0.089,-0.446 0,0"
             style="fill:#fffffa;fill-opacity:1;fill-rule:nonzero;stroke:none"
             id="path6072" />
        </g>
        <g
           id="g6074"
           transform="translate(490.6445,716.7312)">
          <path
             d="m 0,0 2.762,14.344 h 8.034 c 0.763,0 1.34,-0.692 1.202,-1.442 L 9.644,0 Z m 6.163,-19.06 c -0.105,-0.581 -0.611,-1.002 -1.202,-1.002 h -8.824 l 2.744,14.25 h 9.701 z m 18.274,-28.814 8.424,42.123 c 0.207,1.035 -0.585,2.001 -1.64,2.001 H 13.454 c 1.684,0 3.131,1.192 3.453,2.844 l 3.442,17.627 c 0.376,1.925 -1.099,3.716 -3.062,3.716 H -3.301 l -8.812,-46.099 H 7.751 c 2.511,0 4.671,1.779 5.151,4.243 l 2.315,11.856 h 9.701 l -6.366,-30.81 h -4.79 l 1.432,-3.221 H 8.582 l 2.086,13.688 H 3.543 L 0.18,-47.226 c -0.201,-1.033 0.591,-1.993 1.642,-1.993 h 15.875 l 1.502,-3.375 h 6.281 l -1.762,3.676 c 0.357,0.239 0.63,0.598 0.719,1.044"
             style="fill:#260007;fill-opacity:1;fill-rule:nonzero;stroke:none"
             id="path6076" />
        </g>
        <g
           id="g6078"
           transform="translate(542.0937,767.5554)">
          <path
             d="m 0,0 v -1.824 c -3.25,0.75 -10.563,1.625 -10.563,1.625 v 2.406 c -7.635,1.169 -17.868,2 -31.531,2 -46.125,0 -53.156,-9.469 -53.156,-9.469 0,0 29.531,5.344 53.156,5.344 23.625,0 53.157,-5.344 53.157,-5.344 0,0 -2.034,2.733 -11.063,5.262"
             style="fill:#f7ec32;fill-opacity:1;fill-rule:nonzero;stroke:none"
             id="path6080" />
        </g>
        <g
           id="g6082"
           transform="translate(542.4687,778.2312)">
          <path
             d="m 0,0 v -4.312 c 0,0 -5.937,1.312 -10.813,1.999 0,0 0.08,2.815 0,4.563 C -10.938,5 -27.187,9.313 -27.187,9.313 -15.188,9.625 -4.937,7.437 -2.438,5.437 0.062,3.438 0,2.625 0,0 m -15.125,13.662 v -2.849 c -5.625,1.312 -11.187,1.437 -11.187,1.437 v 2.891 c -4.759,0.435 -10.134,0.703 -16.157,0.703 -32.062,0 -45.781,-7.594 -45.781,-7.594 V -7.219 c 0,0 19.344,4.781 45.781,4.781 26.438,0 45.782,-4.781 45.782,-4.781 V 8.25 c 0,0 -5.738,3.168 -18.438,5.412"
             style="fill:#f7ec32;fill-opacity:1;fill-rule:nonzero;stroke:none"
             id="path6084" />
        </g>
        <g
           id="g6086"
           transform="translate(446.8437,762.2937)">
          <path
             d="M 0,0 C 0,0 6.412,1.16 15.647,2.399 15.911,4.15 16.31,5.595 16.636,6.588 2.829,3.802 0,0 0,0"
             style="fill:#fffffa;fill-opacity:1;fill-rule:nonzero;stroke:none"
             id="path6088" />
        </g>
        <g
           id="g6090"
           transform="translate(516.1562,793.3718)">
          <path
             d="m 0,0 c -4.759,0.435 -10.134,0.703 -16.156,0.703 -32.063,0 -45.782,-7.594 -45.782,-7.594 v -15.468 c 0,0 4.209,1.039 11.376,2.149 0.018,6.697 0.232,10.374 2.749,12.569 2.628,2.292 11.666,5.388 47.813,5.525 z"
             style="fill:#fffffa;fill-opacity:1;fill-rule:nonzero;stroke:none"
             id="path6092" />
        </g>
        <g
           id="g6094"
           transform="translate(527.3437,791.4382)">
          <path
             d="M 0,0 C 0.661,0.033 1.27,0.07 1.839,0.111 1.239,0.227 0.635,0.343 0,0.455 Z"
             style="fill:#fffffa;fill-opacity:1;fill-rule:nonzero;stroke:none"
             id="path6096" />
        </g>
        <g
           id="g6098"
           transform="translate(510.3125,800.2625)">
          <path
             d="M 0,0 C 0,0 -7.969,5.625 -18.844,6.375 -3.656,9.188 8.906,5.25 13.781,-1.219 13.781,-1.219 8.25,-0.281 0,0 m -10.313,12.938 c -15.093,0 -26.578,-8.063 -29.812,-17.813 0,0 18,2.344 29.812,2.344 C 1.5,-2.531 19.5,-4.875 19.5,-4.875 16.266,4.875 4.781,12.938 -10.313,12.938"
             style="fill:#f7ec32;fill-opacity:1;fill-rule:nonzero;stroke:none"
             id="path6100" />
        </g>
        <g
           id="g6102"
           transform="translate(470.1875,795.3875)">
          <path
             d="m 0,0 c 0,0 3.037,0.396 7.432,0.861 6.129,9.993 15.63,14.695 25.134,16.86 -0.903,0.06 -1.821,0.091 -2.754,0.091 C 14.719,17.812 3.234,9.75 0,0"
             style="fill:#fffffa;fill-opacity:1;fill-rule:nonzero;stroke:none"
             id="path6104" />
        </g>
        <g
           id="g6106"
           transform="translate(433.2383,564.9812)">
          <path
             d="m 0,0 h 19.168 l 2.162,8.533 c 0.125,0.495 0.57,0.842 1.081,0.842 h 109.882 c 0,0 1.5,6.75 -11.5,6.75 H 9.418 C 1.418,16.125 0,13.875 0,0"
             style="fill:#f7ec32;fill-opacity:1;fill-rule:nonzero;stroke:none"
             id="path6108" />
        </g>
        <g
           id="g6110"
           transform="translate(433.2383,564.9812)">
          <path
             d="m 0,0 h 11.444 l 2.717,16.125 H 9.418 C 1.418,16.125 0,13.875 0,0"
             style="fill:#fffffa;fill-opacity:1;fill-rule:nonzero;stroke:none"
             id="path6112" />
        </g>
        <g
           id="g6114"
           transform="translate(448.2812,586.3562)">
          <path
             d="m 0,0 h 11.875 l 4.359,12.137 c 0.16,0.442 0.58,0.738 1.051,0.738 H 101.5 c 0,0 0,5.25 -8.25,5.25 H 9.75 C 3.625,18.125 1.5,15.625 1,11.5 0.5,7.375 0,0 0,0"
             style="fill:#f7ec32;fill-opacity:1;fill-rule:nonzero;stroke:none"
             id="path6116" />
        </g>
        <g
           id="g6118"
           transform="translate(459.9111,604.4812)">
          <path
             d="m 0,0 h -1.88 c -6.125,0 -8.25,-2.5 -8.75,-6.625 -0.5,-4.125 -1,-11.5 -1,-11.5 h 7.122 z"
             style="fill:#fffffa;fill-opacity:1;fill-rule:nonzero;stroke:none"
             id="path6120" />
        </g>
        <g
           id="g6122"
           transform="translate(301.7187,419.9187)">
          <path
             d="M 0,0 V 7.687 L -76.5,3.844 Z"
             style="fill:#f7ec32;fill-opacity:1;fill-rule:nonzero;stroke:none"
             id="path6124" />
        </g>
        <g
           id="g6126"
           transform="translate(698.2715,419.9187)">
          <path
             d="M 0,0 V 7.687 L 76.5,3.844 Z"
             style="fill:#f7ec32;fill-opacity:1;fill-rule:nonzero;stroke:none"
             id="path6128" />
        </g>
        <g
           id="g6130"
           transform="translate(694.9678,744.5764)">
          <path
             d="m 0,0 -25.873,17.753 c -3.081,2.113 -7.289,1.343 -9.422,-1.724 l -10.517,-15.124 4.125,-2 c 0,0 -24,-42.75 -34.875,-58.625 -5.872,-8.572 -12.388,-15.571 -17.146,-20.202 -2.042,-7.747 -4.898,-15.858 -8.842,-22.173 -2.59,-4.149 -5.398,-7.713 -8.218,-10.765 l 27.956,-18.985 3.625,5.375 -2.875,2.375 c 19.75,28.375 74.875,110.25 74.875,110.25 l 3.625,-1.625 5.03,6.886 C 3.485,-5.821 2.821,-1.936 0,0"
             style="fill:#818286;fill-opacity:1;fill-rule:nonzero;stroke:none"
             id="path6132" />
        </g>
        <g
           id="g6134"
           transform="translate(615.9062,658.4812)">
          <path
             d="m 0,0 -3.75,-5.125 19.417,-5.681 c 1.155,1.697 2.332,3.424 3.52,5.171 z"
             style="fill:#fffeff;fill-opacity:1;fill-rule:nonzero;stroke:none"
             id="path6136" />
        </g>
        <g
           id="g6138"
           transform="translate(636.1562,688.2312)">
          <path
             d="m 0,0 -3.75,-5.125 19.379,-5.669 c 1.176,1.734 2.345,3.461 3.505,5.175 z"
             style="fill:#fffeff;fill-opacity:1;fill-rule:nonzero;stroke:none"
             id="path6140" />
        </g>
        <g
           id="g6142"
           transform="translate(606.0312,643.6062)">
          <path
             d="m 0,0 -3.75,-5.125 19.174,-5.609 c 1.138,1.659 2.32,3.384 3.539,5.166 z"
             style="fill:#fffeff;fill-opacity:1;fill-rule:nonzero;stroke:none"
             id="path6144" />
        </g>
        <g
           id="g6146"
           transform="translate(645.2236,667.7571)">
          <path
             d="m 0,0 -19.067,5.599 -3.75,-5.125 19.305,-5.648 C -2.345,-3.456 -1.174,-1.73 0,0"
             style="fill:#fffeff;fill-opacity:1;fill-rule:nonzero;stroke:none"
             id="path6148" />
        </g>
        <g
           id="g6150"
           transform="translate(652.9062,712.3562)">
          <path
             d="m 0,0 18.777,-5.494 c 1.216,1.801 2.383,3.529 3.496,5.18 L 3.75,5.125 Z"
             style="fill:#fffeff;fill-opacity:1;fill-rule:nonzero;stroke:none"
             id="path6152" />
        </g>
        <g
           id="g6154"
           transform="translate(646.4062,702.4812)">
          <path
             d="m 0,0 -3.75,-5.125 18.873,-5.521 c 1.188,1.754 2.356,3.484 3.501,5.177 z"
             style="fill:#fffeff;fill-opacity:1;fill-rule:nonzero;stroke:none"
             id="path6156" />
        </g>
        <g
           id="g6158"
           transform="translate(584.2002,631.7166)">
          <path
             d="m 0,0 c -10.586,-11.457 -21.336,-15.61 -21.336,-15.61 0,0 2.406,-3.76 4.062,-12.069 1.776,1.696 4.178,2.743 6.829,2.743 5.466,0 9.899,-4.432 9.899,-9.899 0,-2.958 -1.304,-5.605 -3.36,-7.42 1.391,-2.921 2.57,-6.731 3.302,-11.705 11.968,17.536 20.828,30.569 25.276,37.205 z"
             style="fill:#fffeff;fill-opacity:1;fill-rule:nonzero;stroke:none"
             id="path6160" />
        </g>
        <g
           id="g6162"
           transform="translate(585.1191,631.0925)">
          <path
             d="m 0,0 -0.919,0.624 c -10.586,-11.457 -21.336,-15.61 -21.336,-15.61 0,0 1.871,-2.93 3.449,-9.323 z"
             style="fill:#00bdff;fill-opacity:1;fill-rule:nonzero;stroke:none"
             id="path6164" />
        </g>
        <g
           id="g6166"
           transform="translate(608.8721,614.9617)">
          <path
             d="M 0,0 -5.408,3.673 -27.469,-28.17 c 0.905,-2.478 1.665,-5.451 2.194,-9.035 C -13.308,-19.669 -4.448,-6.636 0,0"
             style="fill:#00bdff;fill-opacity:1;fill-rule:nonzero;stroke:none"
             id="path6168" />
        </g>
        <g
           id="g6170"
           transform="translate(305.0322,744.5764)">
          <path
             d="m 0,0 25.873,17.753 c 3.081,2.113 7.289,1.343 9.422,-1.724 l 10.517,-15.124 -4.125,-2 c 0,0 24,-42.75 34.875,-58.625 5.872,-8.572 12.388,-15.571 17.146,-20.202 2.042,-7.747 4.898,-15.858 8.842,-22.173 2.59,-4.149 5.398,-7.713 8.218,-10.765 l -27.956,-18.985 -3.625,5.375 2.875,2.375 C 62.312,-95.72 7.187,-13.845 7.187,-13.845 l -3.625,-1.625 -5.03,6.886 C -3.485,-5.821 -2.821,-1.936 0,0"
             style="fill:#818286;fill-opacity:1;fill-rule:nonzero;stroke:none"
             id="path6172" />
        </g>
        <g
           id="g6174"
           transform="translate(384.0937,658.4812)">
          <path
             d="m 0,0 3.75,-5.125 -19.417,-5.681 c -1.155,1.697 -2.332,3.424 -3.52,5.171 z"
             style="fill:#fffeff;fill-opacity:1;fill-rule:nonzero;stroke:none"
             id="path6176" />
        </g>
        <g
           id="g6178"
           transform="translate(363.8437,688.2312)">
          <path
             d="m 0,0 3.75,-5.125 -19.379,-5.669 c -1.176,1.735 -2.345,3.461 -3.505,5.175 z"
             style="fill:#fffeff;fill-opacity:1;fill-rule:nonzero;stroke:none"
             id="path6180" />
        </g>
        <g
           id="g6182"
           transform="translate(393.9687,643.6062)">
          <path
             d="m 0,0 3.75,-5.125 -19.174,-5.609 c -1.138,1.659 -2.32,3.384 -3.539,5.166 z"
             style="fill:#fffeff;fill-opacity:1;fill-rule:nonzero;stroke:none"
             id="path6184" />
        </g>
        <g
           id="g6186"
           transform="translate(354.7764,667.7571)">
          <path
             d="M 0,0 19.067,5.599 22.817,0.474 3.512,-5.174 C 2.345,-3.456 1.174,-1.73 0,0"
             style="fill:#fffeff;fill-opacity:1;fill-rule:nonzero;stroke:none"
             id="path6188" />
        </g>
        <g
           id="g6190"
           transform="translate(347.0937,712.3562)">
          <path
             d="m 0,0 -18.777,-5.494 c -1.216,1.801 -2.383,3.529 -3.496,5.18 L -3.75,5.125 Z"
             style="fill:#fffeff;fill-opacity:1;fill-rule:nonzero;stroke:none"
             id="path6192" />
        </g>
        <g
           id="g6194"
           transform="translate(353.5937,702.4812)">
          <path
             d="m 0,0 3.75,-5.125 -18.873,-5.521 c -1.188,1.754 -2.356,3.484 -3.501,5.177 z"
             style="fill:#fffeff;fill-opacity:1;fill-rule:nonzero;stroke:none"
             id="path6196" />
        </g>
        <g
           id="g6198"
           transform="translate(415.7998,631.7166)">
          <path
             d="m 0,0 c 10.586,-11.457 21.336,-15.61 21.336,-15.61 0,0 -2.406,-3.76 -4.062,-12.069 -1.776,1.696 -4.178,2.743 -6.829,2.743 -5.466,0 -9.899,-4.432 -9.899,-9.899 0,-2.958 1.304,-5.605 3.36,-7.42 -1.391,-2.921 -2.57,-6.731 -3.302,-11.705 -11.968,17.536 -20.828,30.569 -25.276,37.205 z"
             style="fill:#fffeff;fill-opacity:1;fill-rule:nonzero;stroke:none"
             id="path6200" />
        </g>
        <g
           id="g6202"
           transform="translate(414.8809,631.0925)">
          <path
             d="m 0,0 0.919,0.624 c 10.586,-11.457 21.336,-15.61 21.336,-15.61 0,0 -1.871,-2.93 -3.449,-9.322 z"
             style="fill:#00bdff;fill-opacity:1;fill-rule:nonzero;stroke:none"
             id="path6204" />
        </g>
        <g
           id="g6206"
           transform="translate(391.1279,614.9617)">
          <path
             d="M 0,0 5.408,3.673 27.469,-28.17 c -0.905,-2.478 -1.665,-5.451 -2.194,-9.035 C 13.308,-19.669 4.448,-6.636 0,0"
             style="fill:#00bdff;fill-opacity:1;fill-rule:nonzero;stroke:none"
             id="path6208" />
        </g>
        <g
           id="g6210"
           transform="translate(372.582,641.5847)">
          <path
             d="m 0,0 -88.424,-52.199 c -3.278,-1.937 -5.314,-5.5 -5.314,-9.3 v -15.105 h 4 v 15.105 c 0,2.392 1.283,4.636 3.347,5.855 L 2.262,-3.31 C 1.521,-2.227 0.766,-1.12 0,0"
             style="fill:#fffaf2;fill-opacity:1;fill-rule:nonzero;stroke:none"
             id="path6212" />
        </g>
        <g
           id="g6214"
           transform="translate(715.8408,589.3865)">
          <path
             d="m 0,0 -88.423,52.199 c -0.765,-1.121 -1.521,-2.227 -2.262,-3.31 L -2.033,-3.444 c 2.065,-1.221 3.348,-3.464 3.348,-5.857 v -15.104 h 4 V -9.301 C 5.315,-5.5 3.279,-1.937 0,0"
             style="fill:#fffaf2;fill-opacity:1;fill-rule:nonzero;stroke:none"
             id="path6216" />
        </g>
        <g
           id="g6218"
           transform="translate(352.5469,300.2312)">
          <path
             d="M 0,0 -31.445,-18 -62.891,0 v 36.5 l 31.446,18 L 0,36.5 Z"
             style="fill:none;stroke:#ffffa9;stroke-width:3;stroke-linecap:round;stroke-linejoin:round;stroke-miterlimit:10;stroke-dasharray:none;stroke-opacity:1"
             id="path6220" />
        </g>
        <g
           id="g6222"
           transform="translate(530.8564,300.2312)">
          <path
             d="M 0,0 -31.445,-18 -62.891,0 v 36.5 l 31.446,18 L 0,36.5 Z"
             style="fill:none;stroke:#ffffa9;stroke-width:3;stroke-linecap:round;stroke-linejoin:round;stroke-miterlimit:10;stroke-dasharray:none;stroke-opacity:1"
             id="path6224" />
        </g>
        <g
           id="g6226"
           transform="translate(441.7021,300.2312)">
          <path
             d="M 0,0 -31.445,-18 -62.891,0 v 36.5 l 31.446,18 L 0,36.5 Z"
             style="fill:none;stroke:#ffffa9;stroke-width:3;stroke-linecap:round;stroke-linejoin:round;stroke-miterlimit:10;stroke-dasharray:none;stroke-opacity:1"
             id="path6228" />
        </g>
        <g
           id="g6230"
           transform="translate(620.5693,300.2312)">
          <path
             d="M 0,0 -31.445,-18 -62.891,0 v 36.5 l 31.446,18 L 0,36.5 Z"
             style="fill:none;stroke:#ffffa9;stroke-width:3;stroke-linecap:round;stroke-linejoin:round;stroke-miterlimit:10;stroke-dasharray:none;stroke-opacity:1"
             id="path6232" />
        </g>
        <g
           id="g6234"
           transform="translate(710.2812,300.2312)">
          <path
             d="M 0,0 -31.445,-18 -62.891,0 v 36.5 l 31.446,18 L 0,36.5 Z"
             style="fill:none;stroke:#ffffa9;stroke-width:3;stroke-linecap:round;stroke-linejoin:round;stroke-miterlimit:10;stroke-dasharray:none;stroke-opacity:1"
             id="path6236" />
        </g>
        <g
           id="g6238"
           transform="translate(622.6748,284.1482)">
          <path
             d="m 0,0 -121.233,-71.205 c -0.89,-0.524 -1.995,-0.524 -2.884,0 l -121.21,71.191 -7.031,-9.787 122.164,-71.752 c 2.319,-1.362 4.919,-2.043 7.519,-2.043 2.6,0 5.2,0.682 7.519,2.043 L 6.945,-9.838 Z"
             style="fill:#ff6900;fill-opacity:1;fill-rule:nonzero;stroke:none"
             id="path6240" />
        </g>
        <g
           id="g6242"
           transform="translate(624.9902,280.8689)">
          <path
             d="m 0,0 -121.522,-71.375 c -2.14,-1.256 -4.796,-1.256 -6.936,0 l -121.528,71.378 -2.344,-3.262 121.847,-71.565 c 1.693,-0.995 3.593,-1.492 5.493,-1.492 1.899,0 3.799,0.497 5.493,1.492 L 2.314,-3.279 Z"
             style="fill:#fffaf2;fill-opacity:1;fill-rule:nonzero;stroke:none"
             id="path6244" />
        </g>
        <g
           id="g6246"
           transform="translate(373.9697,294.3152)">
          <path
             d="m 0,0 -35.851,-51.893 c -1.674,-2.423 -4.99,-3.041 -7.424,-1.383 -2.44,1.661 -3.077,4.983 -1.424,7.428 l 38.287,56.666 -9.011,8.578 V 5.916 c 0,-2.151 -1.152,-4.139 -3.019,-5.207 l -16.781,-9.605 -62.715,-91.938 h 13.744 c 18.94,0 36.662,9.322 47.387,24.935 11.628,16.924 28.436,41.393 48.094,70.02 z"
             style="fill:#00bdff;fill-opacity:1;fill-rule:nonzero;stroke:none"
             id="path6248" />
        </g>
        <g
           id="g6250"
           transform="translate(376.8115,292.8357)">
          <path
             d="m 0,0 -36.225,-52.118 c -1.56,-2.259 -4.132,-3.609 -6.88,-3.609 -1.682,0 -3.307,0.501 -4.701,1.451 -3.797,2.585 -4.793,7.783 -2.221,11.588 l 38.624,57.032 -2.359,2.245 -4.503,-6.605 V 7.396 c 0,-2.152 -1.152,-4.139 -3.019,-5.208 L -25.049,0.033 -87.78,-91.979 c 0,0 23.06,-5.725 45.25,25.125 11.12,15.46 28.028,40.435 45.176,65.475 z"
             style="fill:#fffaf2;fill-opacity:1;fill-rule:nonzero;stroke:none"
             id="path6252" />
        </g>
        <g
           id="g6254"
           transform="translate(294.7812,206.075)">
          <path
             d="M 0,0 19.031,27.187 32.813,17.812 C 25.031,8.344 13.031,-2.063 0,0"
             style="fill:#1c74b9;fill-opacity:1;fill-rule:nonzero;stroke:none"
             id="path6256" />
        </g>
        <g
           id="g6258"
           transform="translate(372.0312,334.1375)">
          <path
             d="M 0,0 -4.354,-6.36 0,-10.069 Z"
             style="fill:#00bdff;fill-opacity:1;fill-rule:nonzero;stroke:none"
             id="path6260" />
        </g>
        <g
           id="g6262"
           transform="translate(661.293,285.3601)">
          <path
             d="m 0,0 -16.884,9.664 c -1.867,1.068 -3.018,3.056 -3.018,5.207 v 13.42 l -8.949,-8.518 38.288,-56.666 c 1.652,-2.445 1.015,-5.767 -1.424,-7.428 -2.435,-1.658 -5.75,-1.04 -7.425,1.383 L -35.263,8.955 -46.55,3.076 c 19.658,-28.627 36.466,-53.096 48.094,-70.02 10.726,-15.613 28.447,-24.935 47.388,-24.935 h 13.744 z"
             style="fill:#00bdff;fill-opacity:1;fill-rule:nonzero;stroke:none"
             id="path6264" />
        </g>
        <g
           id="g6266"
           transform="translate(644.4092,295.0242)">
          <path
             d="m 0,0 c -1.867,1.068 -3.019,3.056 -3.019,5.207 v 2.681 l -4.44,6.512 -2.358,-2.245 38.623,-57.032 c 2.572,-3.805 1.575,-9.003 -2.222,-11.588 -1.394,-0.949 -3.019,-1.45 -4.699,-1.45 -2.749,0 -5.322,1.35 -6.882,3.608 l -36.224,52.119 -2.646,-1.379 c 17.148,-25.04 34.056,-50.015 45.177,-65.476 22.189,-30.85 45.25,-25.125 45.25,-25.125 L 3.868,-2.214 Z"
             style="fill:#fffaf2;fill-opacity:1;fill-rule:nonzero;stroke:none"
             id="path6268" />
        </g>
        <g
           id="g6270"
           transform="translate(705.2187,206.075)">
          <path
             d="M 0,0 -19.031,27.187 -32.813,17.812 C -25.031,8.344 -13.031,-2.063 0,0"
             style="fill:#1c74b9;fill-opacity:1;fill-rule:nonzero;stroke:none"
             id="path6272" />
        </g>
        <g
           id="g6274"
           transform="translate(627.9687,334.1375)">
          <path
             d="M 0,0 4.354,-6.36 0,-10.069 Z"
             style="fill:#00bdff;fill-opacity:1;fill-rule:nonzero;stroke:none"
             id="path6276" />
        </g>
        <g
           id="g6278"
           transform="translate(499.9678,232.7937)">
          <path
             d="M 0,0 -82.843,44.438 -69.999,51.354 0,18 71.657,52.031 77.282,48.938 0.032,9.557 Z"
             style="fill:#f7ec32;fill-opacity:1;fill-rule:nonzero;stroke:none"
             id="path6280" />
        </g>
        <g
           id="g6282"
           transform="translate(500,242.3503)">
          <path
             d="m 0,0 -76.709,38.201 6.678,3.597 69.999,-33.355 z"
             style="fill:#fffaf2;fill-opacity:1;fill-rule:nonzero;stroke:none"
             id="path6284" />
        </g>
        <g
           id="g6286"
           transform="translate(372.0312,315.7625)">
          <path
             d="M 0,0 V -4.125 L -9.281,5.906 Z"
             style="fill:#f7ec32;fill-opacity:1;fill-rule:nonzero;stroke:none"
             id="path6288" />
        </g>
        <g
           id="g6290"
           transform="translate(627.9687,311.7312)">
          <path
             d="M 0,0 8.313,8.75 0,3.875 Z"
             style="fill:#f7ec32;fill-opacity:1;fill-rule:nonzero;stroke:none"
             id="path6292" />
        </g>
      </g>
    </g>
    <g
       id="g6294"
       transform="matrix(0.35277777,0,0,-0.35277777,-737.76368,32.006519)">
      <g
         id="g6296">
        <g
           id="g6302">
          <g
             id="g6304">
            <path
               d="m 259.618,546.481 -6.651,-88.625 h 83.565 c 30.783,0 32.08,9.527 32.975,21.652 v 0 c 1.337,18.098 -21.351,24.598 -21.351,24.598 v 0 c 0,0 19.375,0.376 19.75,22.625 v 0 c 0.279,16.517 -10.908,19.75 -29.75,19.75 v 0 z m 19.494,-14.656 h 55.636 c 3.224,0 6.335,-1.351 8.536,-3.705 v 0 c 2.203,-2.354 3.341,-5.549 3.125,-8.765 v 0 C 346,513.24 340.877,508.45 334.748,508.45 v 0 h -57.063 z m -2.039,-35.063 h 58.753 c 3.211,0 6.311,-1.345 8.504,-3.691 v 0 c 2.193,-2.347 3.326,-5.529 3.11,-8.733 v 0 c -0.411,-6.088 -5.512,-10.857 -11.614,-10.857 v 0 h -60.324 z"
               style="fill:url(#linearGradient3002);stroke:none"
               id="path6316" />
          </g>
        </g>
      </g>
    </g>
    <g
       id="g6318"
       transform="matrix(0.35277777,0,0,-0.35277777,-737.76368,32.006519)">
      <g
         id="g6320">
        <g
           id="g6326">
          <g
             id="g6328">
            <path
               d="m 397.66,546.481 -2.753,-88.625 h 99.125 v 15.625 h -77.438 v 23.281 h 71.437 v 11.688 h -71.437 v 23.375 h 75.75 v 14.656 z"
               style="fill:url(#linearGradient3026);stroke:none"
               id="path6340" />
          </g>
        </g>
      </g>
    </g>
    <g
       id="g6342"
       transform="matrix(0.35277777,0,0,-0.35277777,-737.76368,32.006519)">
      <g
         id="g6344">
        <g
           id="g6350">
          <g
             id="g6352">
            <path
               d="M 560.074,546.731 513.4,457.856 h 23.888 l 8.373,17.062 h 64.416 l 9.438,-17.062 h 23.496 l -50.801,88.875 z m 15.87,-10.102 26.943,-48.71 h -50.846 z"
               style="fill:url(#linearGradient3050);stroke:none"
               id="path6364" />
          </g>
        </g>
      </g>
    </g>
    <g
       id="g6366"
       transform="matrix(0.35277777,0,0,-0.35277777,-737.76368,32.006519)">
      <g
         id="g6368"
         clip-path="url(#clipPath6372)">
        <g
           id="g6374"
           transform="translate(496.7764,382.4695)">
          <path
             d="M 0,0 V 8.806 H 37.575 V 20.15 H 0 v 8.861 h 40.061 v 13.054 h -56.625 l -0.615,-55.678 H 41.032 V 0 Z"
             style="fill:#e4219a;fill-opacity:1;fill-rule:nonzero;stroke:none"
             id="path6376" />
        </g>
        <g
           id="g6378"
           transform="translate(345.6133,383.2312)">
          <path
             d="m 0,0 c -3.027,0 -5.464,2.481 -5.403,5.508 0.1,4.975 0.299,11.996 0.441,16.757 0.086,2.92 2.479,5.235 5.401,5.235 h 28.7 c 3.033,0 5.471,-2.496 5.402,-5.527 L 34.158,5.28 C 34.091,2.345 31.692,0 28.756,0 Z m 57.043,-21.125 -11.015,12.78 c 2.397,2.75 3.9,6.304 4.039,10.222 l 0.841,23.709 C 51.217,34.282 44.251,41.5 35.549,41.5 H -2.499 c -9.915,0 -18.049,-7.851 -18.4,-17.759 L -21.674,1.914 C -21.982,-6.782 -15.017,-14 -6.314,-14 h 39.611 l 6.496,-7.125 z"
             style="fill:#e4219a;fill-opacity:1;fill-rule:nonzero;stroke:none"
             id="path6380" />
        </g>
        <g
           id="g6382"
           transform="translate(404.6885,424.7312)">
          <path
             d="m 0,0 h 15.75 v -34.344 c 0,-3.952 3.204,-7.156 7.156,-7.156 h 19.625 c 3.953,0 7.157,3.204 7.157,7.156 V 0 H 65.813 L 65.335,-38.836 C 65.219,-48.28 57.529,-55.875 48.085,-55.875 H 16.821 c -9.603,0 -17.358,7.842 -17.251,17.444 z"
             style="fill:#e4219a;fill-opacity:1;fill-rule:nonzero;stroke:none"
             id="path6384" />
        </g>
        <g
           id="g6386"
           transform="translate(546.0625,387.5125)">
          <path
             d="m 0,0 h 16.312 c 0,0 -1.124,-6.562 7.313,-6.562 h 22.5 c 2.531,0 3.656,1.875 3.656,4.875 0,2.999 -0.75,5.25 -6.656,5.25 H 19.219 C 11.813,3.563 0,5.437 0,18.656 0,31.875 2.25,37.594 21.469,37.594 h 27.469 c 8.531,0 14.25,-3.375 14.25,-17.907 H 47.531 c 0,0 -0.187,5.907 -6,5.907 H 22.875 c -3.75,0 -7.406,-0.563 -7.406,-4.219 0,-3.656 2.062,-5.156 8.718,-5.156 h 25.032 c 7.125,0 17.344,-3.188 17.344,-16.688 0,-13.5 -4.782,-18.187 -19.5,-18.187 H 13.781 C 7.312,-18.656 0,-15.188 0,0"
             style="fill:#e4219a;fill-opacity:1;fill-rule:nonzero;stroke:none"
             id="path6388" />
        </g>
        <g
           id="g6390"
           transform="translate(676.1562,424.5349)">
          <path
             d="m 0,0 h -60.563 v -13.304 h 23.032 l 2.168,-41.832 h 15.32 l -2.327,41.832 H 0 Z"
             style="fill:#e4219a;fill-opacity:1;fill-rule:nonzero;stroke:none"
             id="path6392" />
        </g>
        <g
           id="g6394"
           transform="translate(496.7764,389.4695)">
          <path
             d="M 0,0 V 8.806 H 37.575 V 20.15 H 0 v 8.861 h 40.061 v 13.054 h -56.625 l -0.615,-55.678 H 41.032 V 0 Z"
             style="fill:#16d1ff;fill-opacity:1;fill-rule:nonzero;stroke:none"
             id="path6396" />
        </g>
        <g
           id="g6398"
           transform="translate(344.6133,390.2312)">
          <path
             d="m 0,0 c -3.027,0 -5.464,2.481 -5.403,5.508 0.1,4.975 0.299,11.996 0.441,16.757 0.086,2.92 2.479,5.235 5.401,5.235 h 28.7 c 3.033,0 5.471,-2.496 5.402,-5.527 L 34.158,5.28 C 34.091,2.345 31.692,0 28.756,0 Z m 57.043,-21.125 -11.015,12.78 c 2.397,2.75 3.9,6.304 4.039,10.222 l 0.841,23.709 C 51.217,34.282 44.251,41.5 35.549,41.5 H -2.499 c -9.915,0 -18.049,-7.851 -18.4,-17.759 L -21.674,1.914 C -21.982,-6.782 -15.017,-14 -6.314,-14 h 39.611 l 6.496,-7.125 z"
             style="fill:#16d1ff;fill-opacity:1;fill-rule:nonzero;stroke:none"
             id="path6400" />
        </g>
        <g
           id="g6402"
           transform="translate(405.5312,431.075)">
          <path
             d="m 0,0 h 15.75 v -34.344 c 0,-3.952 3.204,-7.156 7.156,-7.156 h 19.625 c 3.952,0 7.157,3.204 7.157,7.156 V 0 H 65.813 L 65.335,-38.836 C 65.219,-48.28 57.529,-55.875 48.084,-55.875 H 16.82 c -9.602,0 -17.357,7.842 -17.25,17.444 z"
             style="fill:#16d1ff;fill-opacity:1;fill-rule:nonzero;stroke:none"
             id="path6404" />
        </g>
        <g
           id="g6406"
           transform="translate(546.0625,394.5125)">
          <path
             d="m 0,0 h 16.312 c 0,0 -1.124,-6.562 7.313,-6.562 h 22.5 c 2.531,0 3.656,1.875 3.656,4.875 0,2.999 -0.75,5.25 -6.656,5.25 H 19.219 C 11.813,3.563 0,5.437 0,18.656 0,31.875 2.25,37.594 21.469,37.594 h 27.469 c 8.531,0 14.25,-3.375 14.25,-17.907 H 47.531 c 0,0 -0.187,5.907 -6,5.907 H 22.875 c -3.75,0 -7.406,-0.563 -7.406,-4.219 0,-3.656 2.062,-5.156 8.718,-5.156 h 25.032 c 7.125,0 17.344,-3.188 17.344,-16.688 0,-13.5 -4.782,-18.187 -19.5,-18.187 H 13.781 C 7.312,-18.656 0,-15.188 0,0"
             style="fill:#16d1ff;fill-opacity:1;fill-rule:nonzero;stroke:none"
             id="path6408" />
        </g>
        <g
           id="g6410"
           transform="translate(676.1562,431.5349)">
          <path
             d="m 0,0 h -60.563 v -13.304 h 23.032 l 2.168,-41.832 h 15.32 l -2.327,41.832 H 0 Z"
             style="fill:#16d1ff;fill-opacity:1;fill-rule:nonzero;stroke:none"
             id="path6412" />
        </g>
        <g
           id="g6414"
           transform="translate(496.7217,386.4695)">
          <path
             d="M 0,0 V 8.806 H 37.574 V 20.15 H 0 v 8.861 H 40.06 V 42.065 H -16.565 L -17.18,-13.613 H 41.032 V 0 Z"
             style="fill:#ffffff;fill-opacity:1;fill-rule:nonzero;stroke:none"
             id="path6416" />
        </g>
        <g
           id="g6418"
           transform="translate(342.6133,387.2312)">
          <path
             d="m 0,0 c -3.027,0 -5.464,2.481 -5.403,5.508 0.1,4.975 0.299,11.996 0.441,16.757 0.086,2.92 2.479,5.235 5.401,5.235 h 28.7 c 3.033,0 5.471,-2.496 5.402,-5.527 L 34.158,5.28 C 34.091,2.345 31.692,0 28.756,0 Z m 57.043,-21.125 -11.015,12.78 c 2.397,2.75 3.9,6.304 4.039,10.222 l 0.841,23.709 C 51.217,34.282 44.251,41.5 35.549,41.5 H -2.499 c -9.915,0 -18.049,-7.851 -18.4,-17.759 L -21.674,1.914 C -21.982,-6.782 -15.017,-14 -6.314,-14 h 39.611 l 6.496,-7.125 z"
             style="fill:#ffffff;fill-opacity:1;fill-rule:nonzero;stroke:none"
             id="path6420" />
        </g>
        <g
           id="g6422"
           transform="translate(403.5312,428.7312)">
          <path
             d="m 0,0 h 15.75 v -34.344 c 0,-3.952 3.204,-7.156 7.156,-7.156 h 19.625 c 3.952,0 7.157,3.204 7.157,7.156 V 0 H 65.813 L 65.335,-38.836 C 65.219,-48.28 57.529,-55.875 48.084,-55.875 H 16.82 c -9.602,0 -17.357,7.842 -17.25,17.444 z"
             style="fill:#ffffff;fill-opacity:1;fill-rule:nonzero;stroke:none"
             id="path6424" />
        </g>
        <g
           id="g6426"
           transform="translate(547.0625,391.5125)">
          <path
             d="m 0,0 h 16.312 c 0,0 -1.124,-6.562 7.313,-6.562 h 22.5 c 2.531,0 3.656,1.875 3.656,4.875 0,2.999 -0.75,5.25 -6.656,5.25 H 19.219 C 11.813,3.563 0,5.437 0,18.656 0,31.875 2.25,37.594 21.469,37.594 h 27.469 c 8.531,0 14.25,-3.375 14.25,-17.907 H 47.531 c 0,0 -0.187,5.907 -6,5.907 H 22.875 c -3.75,0 -7.406,-0.563 -7.406,-4.219 0,-3.656 2.062,-5.156 8.718,-5.156 h 25.032 c 7.125,0 17.344,-3.188 17.344,-16.688 0,-13.5 -4.782,-18.187 -19.5,-18.187 H 13.781 C 7.312,-18.656 0,-15.188 0,0"
             style="fill:#ffffff;fill-opacity:1;fill-rule:nonzero;stroke:none"
             id="path6428" />
        </g>
        <g
           id="g6430"
           transform="translate(679.1562,428.5349)">
          <path
             d="m 0,0 h -60.563 v -13.304 h 23.032 l 2.168,-41.832 h 15.32 l -2.327,41.832 H 0 Z"
             style="fill:#ffffff;fill-opacity:1;fill-rule:nonzero;stroke:none"
             id="path6432" />
        </g>
        <g
           id="g6434"
           transform="translate(335.7383,299.9187)">
          <path
             d="m 0,0 h -29.273 c -2.375,0 -4.301,1.926 -4.301,4.301 v 28.523 c 0,2.375 1.926,4.301 4.301,4.301 H 0 c 2.375,0 4.301,-1.926 4.301,-4.301 V 4.301 C 4.301,1.926 2.375,0 0,0"
             style="fill:#e47d22;fill-opacity:1;fill-rule:nonzero;stroke:none"
             id="path6436" />
        </g>
        <g
           id="g6438"
           transform="translate(329.6309,313.9001)">
          <path
             d="M 0,0 H 0.01 Z M -16.403,0.58 -8.701,-3.829 -1,0.58 v 8.94 l -7.701,4.409 -7.702,-4.409 z m 7.702,-6.561 c -0.172,0 -0.343,0.044 -0.497,0.131 l -8.701,4.982 c -0.312,0.179 -0.504,0.51 -0.504,0.868 v 10.1 c 0,0.358 0.192,0.689 0.504,0.868 l 8.701,4.981 c 0.307,0.176 0.685,0.176 0.993,0 L 0.497,10.968 C 0.809,10.789 1,10.458 1,10.1 V 0 C 1,-0.358 0.809,-0.689 0.497,-0.868 L -8.205,-5.85 C -8.358,-5.937 -8.53,-5.981 -8.701,-5.981"
             style="fill:#c35200;fill-opacity:1;fill-rule:nonzero;stroke:none"
             id="path6440" />
        </g>
        <g
           id="g6442"
           transform="translate(323.1973,324.2263)">
          <path
             d="M 0,0 -2.268,1.298 -7.97,-1.966 v -6.621 l 4.073,-2.33 z"
             style="fill:#fcffff;fill-opacity:1;fill-rule:nonzero;stroke:none"
             id="path6444" />
        </g>
        <g
           id="g6446"
           transform="translate(318.6162,311.3953)">
          <path
             d="m 0,0 -5.389,3.085 v 8.939 l 7.702,4.41 2.952,-1.69 0.683,1.914 -3.138,1.796 c -0.308,0.176 -0.686,0.176 -0.994,0 l -8.701,-4.981 c -0.311,-0.179 -0.504,-0.51 -0.504,-0.869 V 2.505 c 0,-0.359 0.193,-0.69 0.504,-0.868 l 6.201,-3.55 z"
             style="fill:#fcffff;fill-opacity:1;fill-rule:nonzero;stroke:none"
             id="path6448" />
        </g>
        <g
           id="g6450"
           transform="translate(304.1641,305.9187)">
          <path
             d="m 0,0 h 2.18 v 25.375 h 31.695 v 2.441 c 0,0.723 -0.586,1.309 -1.309,1.309 H 1.309 C 0.586,29.125 0,28.539 0,27.816 Z"
             style="fill:#fcffff;fill-opacity:1;fill-rule:nonzero;stroke:none"
             id="path6452" />
        </g>
        <g
           id="g6454"
           transform="translate(332.7187,319.7312)">
          <path
             d="m 0,0 -0.088,-0.056 v -5.775 c 0,-1.072 -0.578,-2.069 -1.508,-2.603 l -8.703,-4.982 c -0.454,-0.26 -0.969,-0.397 -1.49,-0.397 -0.522,0 -1.036,0.137 -1.489,0.396 l -4.205,2.408 -11.072,-4.275 v -2.528 H 5.32 V 4.555 Z"
             style="fill:#c35200;fill-opacity:1;fill-rule:nonzero;stroke:none"
             id="path6456" />
        </g>
        <g
           id="g6458"
           transform="translate(432.7568,318.4812)">
          <path
             d="M 0,0 C 0,-12.427 -10.074,-22.5 -22.5,-22.5 -34.927,-22.5 -45,-12.427 -45,0 -45,12.427 -34.927,22.5 -22.5,22.5 -10.074,22.5 0,12.427 0,0"
             style="fill:#cfd2d3;fill-opacity:1;fill-rule:nonzero;stroke:none"
             id="path6460" />
        </g>
        <g
           id="g6462"
           transform="translate(418.6523,313.4314)">
          <path
             d="M 0,0 H 0.01 Z M -16.403,0.58 -8.702,-3.829 -1,0.58 v 8.94 l -7.702,4.409 -7.701,-4.409 z m 7.701,-6.561 c -0.171,0 -0.343,0.044 -0.496,0.131 l -8.702,4.982 c -0.312,0.179 -0.503,0.51 -0.503,0.868 v 10.1 c 0,0.358 0.191,0.689 0.503,0.868 l 8.702,4.981 c 0.307,0.176 0.685,0.176 0.993,0 L 0.496,10.968 C 0.808,10.789 1,10.458 1,10.1 V 0 C 1,-0.358 0.808,-0.689 0.496,-0.868 L -8.205,-5.85 C -8.359,-5.937 -8.53,-5.981 -8.702,-5.981"
             style="fill:#6c6d71;fill-opacity:1;fill-rule:nonzero;stroke:none"
             id="path6464" />
        </g>
        <g
           id="g6466"
           transform="translate(412.2187,323.7576)">
          <path
             d="M 0,0 -2.269,1.298 -7.97,-1.966 v -6.621 l 4.072,-2.33 z"
             style="fill:#fdfeff;fill-opacity:1;fill-rule:nonzero;stroke:none"
             id="path6468" />
        </g>
        <g
           id="g6470"
           transform="translate(407.6367,310.9265)">
          <path
             d="m 0,0 -5.388,3.085 v 8.939 l 7.701,4.41 2.952,-1.69 0.683,1.914 -3.137,1.796 c -0.308,0.176 -0.686,0.176 -0.994,0 l -8.702,-4.981 c -0.311,-0.179 -0.503,-0.51 -0.503,-0.869 V 2.505 c 0,-0.359 0.192,-0.69 0.503,-0.868 l 6.202,-3.55 z"
             style="fill:#fdfeff;fill-opacity:1;fill-rule:nonzero;stroke:none"
             id="path6472" />
        </g>
        <g
           id="g6474"
           transform="translate(410.2568,338.9812)">
          <path
             d="m 0,0 c -11.304,0 -20.5,-9.196 -20.5,-20.5 0,-2.57 0.496,-5.022 1.363,-7.291 l 3.503,-0.528 c -1.183,2.356 -1.866,5.007 -1.866,7.819 0,9.649 7.851,17.5 17.5,17.5 5.566,0 10.523,-2.622 13.731,-6.686 l 0.633,3.788 C 10.662,-2.256 5.592,0 0,0"
             style="fill:#fdfeff;fill-opacity:1;fill-rule:nonzero;stroke:none"
             id="path6476" />
        </g>
        <g
           id="g6478"
           transform="translate(425.7402,331.8757)">
          <path
             d="m 0,0 c -0.228,-1.766 -0.598,-4.344 -1.015,-6.051 -0.687,-2.812 -2.687,-6.062 -2.687,-6.062 l -0.386,-0.234 v -6.097 c 0,-1.073 -0.578,-2.07 -1.509,-2.603 l -8.703,-4.982 c -0.454,-0.26 -0.969,-0.397 -1.49,-0.397 -0.522,0 -1.036,0.137 -1.488,0.396 l -5.768,3.301 -11.13,0.959 c 3.211,-7.135 10.373,-12.125 18.693,-12.125 11.303,0 20.5,9.197 20.5,20.5 C 5.017,-8.273 3.116,-3.597 0,0"
             style="fill:#6c6d71;fill-opacity:1;fill-rule:nonzero;stroke:none"
             id="path6480" />
        </g>
        <g
           id="g6482"
           transform="translate(496.418,294.9656)">
          <path
             d="m 0,0 -20.522,20.522 c -1.654,1.654 -1.654,4.333 0,5.987 L 0,47.031 c 1.653,1.654 4.334,1.654 5.987,0 L 26.509,26.509 c 1.653,-1.654 1.653,-4.333 0,-5.987 L 5.987,0 C 4.334,-1.653 1.653,-1.653 0,0"
             style="fill:#f0f328;fill-opacity:1;fill-rule:nonzero;stroke:none"
             id="path6484" />
        </g>
        <g
           id="g6486"
           transform="translate(507.7285,313.8689)">
          <path
             d="M 0,0 H 0.01 Z M -16.403,0.58 -8.701,-3.829 -1,0.58 v 8.94 l -7.701,4.409 -7.702,-4.409 z m 7.702,-6.561 c -0.172,0 -0.343,0.044 -0.497,0.131 l -8.701,4.982 c -0.312,0.179 -0.504,0.51 -0.504,0.868 v 10.1 c 0,0.358 0.192,0.689 0.504,0.868 l 8.701,4.981 c 0.307,0.176 0.685,0.176 0.993,0 L 0.497,10.968 C 0.809,10.789 1,10.458 1,10.1 V 0 C 1,-0.358 0.809,-0.689 0.497,-0.868 L -8.205,-5.85 C -8.358,-5.937 -8.53,-5.981 -8.701,-5.981"
             style="fill:#f5941d;fill-opacity:1;fill-rule:nonzero;stroke:none"
             id="path6488" />
        </g>
        <g
           id="g6490"
           transform="translate(501.2949,324.1951)">
          <path
             d="M 0,0 -2.268,1.298 -7.97,-1.966 v -6.621 l 4.073,-2.33 z"
             style="fill:#fdfeff;fill-opacity:1;fill-rule:nonzero;stroke:none"
             id="path6492" />
        </g>
        <g
           id="g6494"
           transform="translate(496.7139,311.364)">
          <path
             d="m 0,0 -5.389,3.085 v 8.939 l 7.702,4.41 2.952,-1.69 0.683,1.914 -3.138,1.796 c -0.308,0.176 -0.686,0.176 -0.994,0 l -8.701,-4.981 c -0.311,-0.179 -0.504,-0.51 -0.504,-0.869 V 2.505 c 0,-0.359 0.193,-0.69 0.504,-0.868 l 6.201,-3.55 z"
             style="fill:#fdfeff;fill-opacity:1;fill-rule:nonzero;stroke:none"
             id="path6496" />
        </g>
        <g
           id="g6498"
           transform="translate(500.3398,338.0437)">
          <path
             d="m 0,0 17.531,-17.156 1.806,1.009 L 0.65,2.539 c -0.421,0.422 -0.982,0.654 -1.579,0.654 -0.596,0 -1.157,-0.232 -1.579,-0.654 l -20.937,-20.937 c -0.643,-0.643 -0.643,-1.686 0,-2.329 l 1.665,-1.665 z"
             style="fill:#fdfeff;fill-opacity:1;fill-rule:nonzero;stroke:none"
             id="path6500" />
        </g>
        <g
           id="g6502"
           transform="translate(521.5127,320.0603)">
          <path
             d="m 0,0 -0.981,0.982 -9.803,-4.936 v -2.237 c 0,-1.073 -0.578,-2.07 -1.508,-2.603 l -8.703,-4.982 c -0.454,-0.26 -0.969,-0.397 -1.49,-0.397 -0.522,0 -1.036,0.137 -1.49,0.396 l -8.703,4.982 c -0.104,0.061 -0.187,0.146 -0.284,0.218 h -5.822 l 15.103,-15.104 c 0.422,-0.422 0.983,-0.654 1.579,-0.654 0.597,0 1.158,0.232 1.58,0.654 L 0,-3.158 C 0.87,-2.287 0.87,-0.871 0,0"
             style="fill:#f5941d;fill-opacity:1;fill-rule:nonzero;stroke:none"
             id="path6504" />
        </g>
        <g
           id="g6506"
           transform="translate(588.5264,293.95)">
          <path
             d="m 0,0 c -14.735,8.866 -20.437,16.261 -20.559,36.838 -0.002,0.415 0.223,0.806 0.584,1.009 L 0.04,49.08 c 0.347,0.194 0.769,0.194 1.114,0 L 21.169,37.847 C 21.53,37.644 21.755,37.253 21.753,36.838 21.631,16.261 15.93,8.866 1.194,0 0.832,-0.218 0.362,-0.218 0,0"
             style="fill:#a0ddd1;fill-opacity:1;fill-rule:nonzero;stroke:none"
             id="path6508" />
        </g>
        <g
           id="g6510"
           transform="translate(597.209,314.1199)">
          <path
             d="m 0,0 h 0.009 z m -15.241,0.539 7.156,-4.097 7.155,4.097 v 8.307 l -7.155,4.096 -7.156,-4.096 z m 7.156,-6.097 c -0.159,0 -0.319,0.041 -0.462,0.123 l -8.085,4.628 C -16.921,-0.641 -17.1,-0.333 -17.1,0 v 9.385 c 0,0.333 0.179,0.64 0.468,0.806 l 8.085,4.628 c 0.286,0.163 0.637,0.163 0.923,0 L 0.461,10.191 C 0.751,10.025 0.929,9.718 0.929,9.385 V 0 c 0,-0.333 -0.178,-0.641 -0.468,-0.807 l -8.085,-4.628 c -0.143,-0.082 -0.302,-0.123 -0.461,-0.123"
             style="fill:#6fbcae;fill-opacity:1;fill-rule:nonzero;stroke:none"
             id="path6512" />
        </g>
        <g
           id="g6514"
           transform="translate(591.2305,323.7146)">
          <path
             d="m 0,0 -2.106,1.206 -5.298,-3.032 v -6.153 l 3.783,-2.165 z"
             style="fill:#fdfeff;fill-opacity:1;fill-rule:nonzero;stroke:none"
             id="path6516" />
        </g>
        <g
           id="g6518"
           transform="translate(586.9746,311.7927)">
          <path
             d="m 0,0 -5.007,2.866 v 8.307 l 7.156,4.097 2.742,-1.571 0.635,1.779 -2.916,1.668 c -0.286,0.164 -0.636,0.164 -0.923,0 l -8.084,-4.627 c -0.29,-0.166 -0.468,-0.474 -0.468,-0.807 V 2.327 c 0,-0.333 0.178,-0.64 0.468,-0.806 l 5.761,-3.299 z"
             style="fill:#fdfeff;fill-opacity:1;fill-rule:nonzero;stroke:none"
             id="path6520" />
        </g>
        <g
           id="g6522"
           transform="translate(600.1377,320.0828)">
          <path
             d="m 0,0 v -5.963 c 0,-1.046 -0.563,-2.019 -1.472,-2.541 l -8.088,-4.63 c -0.446,-0.254 -0.947,-0.387 -1.455,-0.387 -0.506,0 -1.006,0.132 -1.447,0.382 l -8.093,4.634 c -0.909,0.522 -1.473,1.495 -1.473,2.542 v 1.223 h -6.298 c 2.622,-8.931 8.152,-13.858 17.312,-19.416 12.323,7.478 18.075,13.817 19.015,30.3 z"
             style="fill:#6fbcae;fill-opacity:1;fill-rule:nonzero;stroke:none"
             id="path6524" />
        </g>
        <g
           id="g6526"
           transform="translate(573.7812,316.2175)">
          <path
             d="M 0,0 V 9.844 L 17.062,19.219 31.5,10.845 h 2.901 c 0.049,1.041 0.081,2.116 0.093,3.238 L 15.343,24.832 -3.81,14.083 C -3.749,8.43 -3.231,3.853 -2.21,0 Z"
             style="fill:#fdfeff;fill-opacity:1;fill-rule:nonzero;stroke:none"
             id="path6528" />
        </g>
        <g
           id="g6530"
           transform="translate(677.4707,294.74)">
          <path
             d="m 0,0 -21.46,15.524 c -0.838,0.607 -1.176,1.694 -0.829,2.668 l 8.692,24.428 c 0.33,0.929 1.209,1.549 2.195,1.549 H 1.365 14.133 c 0.985,0 1.864,-0.62 2.194,-1.549 L 25.02,18.192 c 0.346,-0.974 0.008,-2.061 -0.83,-2.668 L 2.73,0 C 1.916,-0.59 0.814,-0.59 0,0"
             style="fill:#51ebfd;fill-opacity:1;fill-rule:nonzero;stroke:none"
             id="path6532" />
        </g>
        <g
           id="g6534"
           transform="translate(687.3437,314.7253)">
          <path
             d="m 0,0 h 0.009 z m -16.038,0.567 7.53,-4.311 7.529,4.311 v 8.74 l -7.529,4.311 -7.53,-4.311 z m 7.53,-6.415 c -0.168,0 -0.335,0.043 -0.485,0.129 l -8.508,4.87 c -0.305,0.175 -0.492,0.498 -0.492,0.849 v 9.874 c 0,0.351 0.187,0.674 0.492,0.849 l 8.508,4.87 c 0.301,0.172 0.67,0.172 0.971,0 l 8.507,-4.87 C 0.79,10.548 0.978,10.225 0.978,9.874 V 0 c 0,-0.351 -0.188,-0.674 -0.493,-0.849 l -8.507,-4.87 C -8.173,-5.805 -8.34,-5.848 -8.508,-5.848"
             style="fill:#00acab;fill-opacity:1;fill-rule:nonzero;stroke:none"
             id="path6536" />
        </g>
        <g
           id="g6538"
           transform="translate(681.0527,324.821)">
          <path
             d="m 0,0 -2.217,1.269 -5.574,-3.191 v -6.474 l 3.98,-2.278 z"
             style="fill:#fdfeff;fill-opacity:1;fill-rule:nonzero;stroke:none"
             id="path6540" />
        </g>
        <g
           id="g6542"
           transform="translate(676.5742,312.2761)">
          <path
             d="m 0,0 -5.269,3.017 v 8.739 l 7.531,4.311 2.884,-1.652 0.669,1.871 -3.068,1.756 c -0.301,0.172 -0.67,0.172 -0.971,0 l -8.507,-4.87 C -7.036,12.997 -7.224,12.674 -7.224,12.323 V 2.449 c 0,-0.35 0.188,-0.674 0.493,-0.848 l 6.063,-3.472 z"
             style="fill:#fdfeff;fill-opacity:1;fill-rule:nonzero;stroke:none"
             id="path6544" />
        </g>
        <g
           id="g6546"
           transform="translate(700.6064,312.2615)">
          <path
             d="M 0,0 -3.201,8.995 -10.285,3.551 V 2.464 c 0,-1.064 -0.573,-2.054 -1.497,-2.583 l -8.51,-4.871 c -0.45,-0.258 -0.961,-0.394 -1.479,-0.394 -0.517,0 -1.028,0.136 -1.477,0.393 l -3.583,2.051 h -13.048 l 17.914,-12.96 c 0.072,-0.052 0.146,-0.063 0.194,-0.063 0.049,0 0.123,0.011 0.193,0.062 l 21.46,15.524 C 0,-0.292 0.048,-0.137 0,0"
             style="fill:#00acab;fill-opacity:1;fill-rule:nonzero;stroke:none"
             id="path6548" />
        </g>
        <g
           id="g6550"
           transform="translate(668.2812,334.9714)">
          <path
             d="M 0,0 H 24.243 L 23.632,1.719 C 23.586,1.85 23.461,1.937 23.322,1.937 H -2.213 c -0.139,0 -0.264,-0.087 -0.31,-0.219 l -8.693,-24.427 c -0.049,-0.138 0,-0.292 0.118,-0.378 l 2.319,-1.678 z"
             style="fill:#fdfeff;fill-opacity:1;fill-rule:nonzero;stroke:none"
             id="path6552" />
        </g>
      </g>
    </g>
  </g>
</svg>
